<svg xmlns="http://www.w3.org/2000/svg" width="900" height="760" viewBox="0 0 900 760"><style>text{font-family:Inter,Arial,sans-serif}.title{font-size:24px;font-weight:700;fill:#111827}.sub{font-size:13px;fill:#4b5563}.axis{font-size:11px;fill:#6b7280}.label{font-size:12px;fill:#111827}.value{font-size:12px;font-weight:700;fill:#111827}.grid{stroke:#e5e7eb;stroke-width:1}.hcv{fill:#b91c1c}.renter{fill:#2563eb}.pos{fill:#15803d}.neg{fill:#b91c1c}.muted{fill:#9ca3af}</style><text x="85" y="38" class="title">Metro Scatter: HCV Exposure vs. Renter Benchmark</text><text x="85" y="64" class="sub">Dots below the diagonal indicate lower HCV opportunity exposure than renters overall.</text><line x1="85" y1="90" x2="85" y2="650" class="grid"/><line x1="85" y1="650" x2="805" y2="650" class="grid"/><text x="85" y="678" class="axis" text-anchor="middle">0</text><text x="73" y="654" class="axis" text-anchor="end">0</text><line x1="265" y1="90" x2="265" y2="650" class="grid"/><line x1="85" y1="510" x2="805" y2="510" class="grid"/><text x="265" y="678" class="axis" text-anchor="middle">20</text><text x="73" y="514" class="axis" text-anchor="end">20</text><line x1="445" y1="90" x2="445" y2="650" class="grid"/><line x1="85" y1="370" x2="805" y2="370" class="grid"/><text x="445" y="678" class="axis" text-anchor="middle">40</text><text x="73" y="374" class="axis" text-anchor="end">40</text><line x1="625" y1="90" x2="625" y2="650" class="grid"/><line x1="85" y1="230" x2="805" y2="230" class="grid"/><text x="625" y="678" class="axis" text-anchor="middle">60</text><text x="73" y="234" class="axis" text-anchor="end">60</text><line x1="805" y1="90" x2="805" y2="650" class="grid"/><line x1="85" y1="90" x2="805" y2="90" class="grid"/><text x="805" y="678" class="axis" text-anchor="middle">80</text><text x="73" y="94" class="axis" text-anchor="end">80</text><line x1="85" y1="650" x2="805" y2="90" stroke="#111827" stroke-width="1.5" stroke-dasharray="5 5"/><circle cx="392.3459713684558" cy="464.3230337078652" r="3.2" fill="#b91c1c" opacity="0.32"/><circle cx="473.92315035799527" cy="457.39053576285016" r="3.2" fill="#b91c1c" opacity="0.32"/><circle cx="253.86079027355623" cy="563.8366693354684" r="3.2" fill="#b91c1c" opacity="0.32"/><circle cx="439.3398970009088" cy="391.7405437352246" r="3.2" fill="#b91c1c" opacity="0.32"/><circle cx="601.8543221002556" cy="355.9397909967846" r="3.2" fill="#b91c1c" opacity="0.32"/><circle cx="411.1994211872391" cy="464.73497267759564" r="3.2" fill="#b91c1c" opacity="0.32"/><circle cx="261.89367088607594" cy="568.5398773006135" r="3.2" fill="#b91c1c" opacity="0.32"/><circle cx="512.6333059488716" cy="380.5291582878483" r="3.2" fill="#b91c1c" opacity="0.32"/><circle cx="461.9845490477901" cy="406.94174757281553" r="3.2" fill="#b91c1c" opacity="0.32"/><circle cx="395.24177790009634" cy="490.704974271012" r="3.2" fill="#b91c1c" opacity="0.32"/><circle cx="714.0072840790842" cy="183.60583941605836" r="3.2" fill="#b91c1c" opacity="0.32"/><circle cx="792.4598272703481" cy="106.29923451635352" r="3.2" fill="#b91c1c" opacity="0.32"/><circle cx="530.3997376311845" cy="349.8800255264837" r="3.2" fill="#b91c1c" opacity="0.32"/><circle cx="727.0145191507078" cy="247.06975519873652" r="3.2" fill="#b91c1c" opacity="0.32"/><circle cx="282.0785219399539" cy="534.7964480874317" r="3.2" fill="#b91c1c" opacity="0.32"/><circle cx="660.8740034999028" cy="222.58971291866027" r="3.2" fill="#b91c1c" opacity="0.32"/><circle cx="546.1202809482002" cy="321.5808547863034" r="3.2" fill="#b91c1c" opacity="0.32"/><circle cx="512.1579572446556" cy="371.9511494252874" r="3.2" fill="#b91c1c" opacity="0.32"/><circle cx="516.6506106391939" cy="413.59157926736583" r="3.2" fill="#b91c1c" opacity="0.32"/><circle cx="482.45064702643174" cy="448.8312052320149" r="3.2" fill="#b91c1c" opacity="0.32"/><circle cx="496.0231179608773" cy="371.947782546495" r="3.2" fill="#b91c1c" opacity="0.32"/><circle cx="320.59403797821835" cy="559.3956117021277" r="3.2" fill="#b91c1c" opacity="0.32"/><circle cx="628.0813569144254" cy="310.29553540686334" r="3.2" fill="#b91c1c" opacity="0.32"/><circle cx="249.0107006755973" cy="587.1638901395768" r="3.2" fill="#b91c1c" opacity="0.32"/><circle cx="568.7010716861029" cy="345.6055865921788" r="3.2" fill="#b91c1c" opacity="0.32"/><circle cx="579.8944487881157" cy="259.40339531123686" r="3.2" fill="#15803d" opacity="0.5"/><circle cx="704.6287553648068" cy="188.4414414414415" r="3.2" fill="#b91c1c" opacity="0.32"/><circle cx="406.6593285635663" cy="518.4802911931819" r="3.2" fill="#b91c1c" opacity="0.32"/><circle cx="312.216306156406" cy="565.6848341232228" r="3.2" fill="#b91c1c" opacity="0.32"/><circle cx="413.9098360655737" cy="449.3438202247191" r="3.2" fill="#b91c1c" opacity="0.32"/><circle cx="290.1799040624867" cy="540.0815027061445" r="3.2" fill="#b91c1c" opacity="0.32"/><circle cx="329.5842245989305" cy="448.37465181058496" r="3.2" fill="#15803d" opacity="0.5"/><circle cx="665.1397865401719" cy="227.72427983539097" r="3.2" fill="#b91c1c" opacity="0.32"/><circle cx="622.6279186964555" cy="265.789240972734" r="3.2" fill="#b91c1c" opacity="0.32"/><circle cx="538.9906790945406" cy="360.89060402684566" r="3.2" fill="#b91c1c" opacity="0.32"/><circle cx="462.1891156462585" cy="390.976404494382" r="3.2" fill="#b91c1c" opacity="0.32"/><circle cx="422.761904048986" cy="528.4897096137581" r="3.2" fill="#b91c1c" opacity="0.32"/><circle cx="649.42" cy="220.34777777777776" r="3.2" fill="#b91c1c" opacity="0.32"/><circle cx="629.2834039276088" cy="274.1051094890511" r="3.2" fill="#b91c1c" opacity="0.32"/><circle cx="615.2942648592284" cy="243.97265625" r="3.2" fill="#b91c1c" opacity="0.32"/><circle cx="647.3513414856726" cy="243.77207505518766" r="3.2" fill="#b91c1c" opacity="0.32"/><circle cx="585.2924926461185" cy="305.45969498910677" r="3.2" fill="#b91c1c" opacity="0.32"/><circle cx="723.2394986123129" cy="204.5237115758199" r="3.2" fill="#b91c1c" opacity="0.32"/><circle cx="828.3847988077496" cy="92.99818895261092" r="3.2" fill="#b91c1c" opacity="0.32"/><circle cx="427.8927159796725" cy="431.48192771084337" r="3.2" fill="#b91c1c" opacity="0.32"/><circle cx="793.6666666666667" cy="93.46650717703346" r="3.2" fill="#15803d" opacity="0.5"/><circle cx="624.6367334167709" cy="283.10492069947134" r="3.2" fill="#b91c1c" opacity="0.32"/><circle cx="589.3340928800992" cy="353.67957820004176" r="3.2" fill="#b91c1c" opacity="0.32"/><circle cx="199.3318843729624" cy="560.2998477929984" r="3.2" fill="#15803d" opacity="0.5"/><circle cx="287.7192727272727" cy="565.4643320363165" r="3.2" fill="#b91c1c" opacity="0.32"/><circle cx="523.6007321646478" cy="413.58454727220794" r="3.2" fill="#b91c1c" opacity="0.32"/><circle cx="428.38854895104896" cy="467.36657433056325" r="3.2" fill="#b91c1c" opacity="0.32"/><circle cx="770.9766355140187" cy="134.5551731555173" r="3.2" fill="#b91c1c" opacity="0.32"/><circle cx="447.1516085532653" cy="521.5901022054868" r="3.2" fill="#b91c1c" opacity="0.32"/><circle cx="438.4564530279177" cy="481.9093100331425" r="3.2" fill="#b91c1c" opacity="0.32"/><circle cx="450.6068785372224" cy="459.8645383951682" r="3.2" fill="#b91c1c" opacity="0.32"/><circle cx="433.74242424242425" cy="387.63535911602213" r="3.2" fill="#b91c1c" opacity="0.32"/><circle cx="521.3417085427136" cy="331.789391575663" r="3.2" fill="#b91c1c" opacity="0.32"/><circle cx="557.5089625203693" cy="330.7640769779045" r="3.2" fill="#b91c1c" opacity="0.32"/><circle cx="498.62300884955755" cy="333.39845758354755" r="3.2" fill="#b91c1c" opacity="0.32"/><circle cx="559.2074292019124" cy="301.278816876903" r="3.2" fill="#b91c1c" opacity="0.32"/><circle cx="417.8945724326435" cy="427.2332095848802" r="3.2" fill="#b91c1c" opacity="0.32"/><circle cx="524.8669674732248" cy="425.4245106382979" r="3.2" fill="#b91c1c" opacity="0.32"/><circle cx="506.73538803156924" cy="408.6146999325691" r="3.2" fill="#b91c1c" opacity="0.32"/><circle cx="712.1142042596009" cy="152.68715083798884" r="3.2" fill="#15803d" opacity="0.5"/><circle cx="466.84597056762436" cy="436.31946755407654" r="3.2" fill="#b91c1c" opacity="0.32"/><circle cx="545.0615784908933" cy="318.2078285181733" r="3.2" fill="#b91c1c" opacity="0.32"/><circle cx="561.3626773284714" cy="407.16697745731807" r="3.2" fill="#b91c1c" opacity="0.32"/><circle cx="460.5468615649183" cy="386.60562730627305" r="3.2" fill="#b91c1c" opacity="0.32"/><circle cx="506.92412801276487" cy="443.5196729688298" r="3.2" fill="#b91c1c" opacity="0.32"/><circle cx="394.9589618456078" cy="482.0678787878788" r="3.2" fill="#b91c1c" opacity="0.32"/><circle cx="444.9917875460181" cy="499.33167799268165" r="3.2" fill="#b91c1c" opacity="0.32"/><circle cx="420.49898167006114" cy="428.3333333333333" r="3.2" fill="#b91c1c" opacity="0.32"/><circle cx="571.9121293800539" cy="322.31849315068496" r="3.2" fill="#b91c1c" opacity="0.32"/><circle cx="451.60666598715727" cy="412.6071608673726" r="3.2" fill="#b91c1c" opacity="0.32"/><circle cx="579.6026708562451" cy="298.3018126888217" r="3.2" fill="#b91c1c" opacity="0.32"/><circle cx="584.1479660259276" cy="338.05155155155154" r="3.2" fill="#b91c1c" opacity="0.32"/><circle cx="405.14941690962104" cy="470.92001311260447" r="3.2" fill="#b91c1c" opacity="0.32"/><circle cx="312.2321481536408" cy="562.2280633938925" r="3.2" fill="#b91c1c" opacity="0.32"/><circle cx="565.1226366888094" cy="334.72447724477246" r="3.2" fill="#b91c1c" opacity="0.32"/><circle cx="512.1129072646838" cy="468.4795504695438" r="3.2" fill="#b91c1c" opacity="0.32"/><circle cx="353.16195168467897" cy="564.4511400651465" r="3.2" fill="#b91c1c" opacity="0.32"/><circle cx="730.9870909636745" cy="164.7013888888889" r="3.2" fill="#b91c1c" opacity="0.32"/><circle cx="550.429695468454" cy="412.90260631001365" r="3.2" fill="#b91c1c" opacity="0.32"/><circle cx="494.6124478955596" cy="378.8634370760671" r="3.2" fill="#b91c1c" opacity="0.32"/><circle cx="292.92539734025297" cy="476.9090909090909" r="3.2" fill="#15803d" opacity="0.5"/><circle cx="534.8298084100522" cy="360.70399999999995" r="3.2" fill="#b91c1c" opacity="0.32"/><circle cx="456.2046915167095" cy="405.6240310077519" r="3.2" fill="#b91c1c" opacity="0.32"/><circle cx="464.4569102296451" cy="454.7265871383519" r="3.2" fill="#b91c1c" opacity="0.32"/><circle cx="307.9748567791216" cy="521.0810092961487" r="3.2" fill="#b91c1c" opacity="0.32"/><circle cx="305.1576994434137" cy="555.7567783094099" r="3.2" fill="#b91c1c" opacity="0.32"/><circle cx="424.8553186363089" cy="439.41766576951306" r="3.2" fill="#b91c1c" opacity="0.32"/><circle cx="638.6557073857776" cy="288.91702117713055" r="3.2" fill="#b91c1c" opacity="0.32"/><circle cx="603.326483753508" cy="324.2702407002188" r="3.2" fill="#b91c1c" opacity="0.32"/><circle cx="456.55754329124585" cy="512.0233494363929" r="3.2" fill="#b91c1c" opacity="0.32"/><circle cx="285.18347609836974" cy="583.5853658536586" r="3.2" fill="#b91c1c" opacity="0.32"/><circle cx="483.7" cy="331.0779742765273" r="3.2" fill="#15803d" opacity="0.5"/><circle cx="540.4176800748362" cy="343.11049723756906" r="3.2" fill="#b91c1c" opacity="0.32"/><circle cx="528.0256923076923" cy="385.2552255225522" r="3.2" fill="#b91c1c" opacity="0.32"/><circle cx="597.1784606145532" cy="342.5563117453348" r="3.2" fill="#b91c1c" opacity="0.32"/><circle cx="225.7028921998247" cy="556.3402922755741" r="3.2" fill="#b91c1c" opacity="0.32"/><circle cx="634.0743801652893" cy="231.66813768755515" r="3.2" fill="#b91c1c" opacity="0.32"/><circle cx="234.1050515204825" cy="534.0955109837631" r="3.2" fill="#b91c1c" opacity="0.32"/><circle cx="296.9515757464062" cy="522.9391432791729" r="3.2" fill="#b91c1c" opacity="0.32"/><circle cx="433.84284906726964" cy="384" r="3.2" fill="#b91c1c" opacity="0.32"/><circle cx="352.61860915919556" cy="482.7809330628803" r="3.2" fill="#b91c1c" opacity="0.32"/><circle cx="396.9440145653163" cy="495.8666666666667" r="3.2" fill="#b91c1c" opacity="0.32"/><circle cx="300.2123623011016" cy="490.60550458715596" r="3.2" fill="#b91c1c" opacity="0.32"/><circle cx="436.95709194583037" cy="406.46797823357053" r="3.2" fill="#b91c1c" opacity="0.32"/><circle cx="550.4687282027435" cy="327.23014256619143" r="3.2" fill="#b91c1c" opacity="0.32"/><circle cx="393.7780440317508" cy="503.4596412556054" r="3.2" fill="#b91c1c" opacity="0.32"/><circle cx="500.10184862225316" cy="378.3572710951526" r="3.2" fill="#b91c1c" opacity="0.32"/><circle cx="596.5744201030927" cy="270.69972948602344" r="3.2" fill="#b91c1c" opacity="0.32"/><circle cx="234.40073982737363" cy="509.11369509043925" r="3.2" fill="#15803d" opacity="0.5"/><circle cx="312.6223984142716" cy="512.196875" r="3.2" fill="#b91c1c" opacity="0.32"/><circle cx="526.1966386554623" cy="348.82340574632093" r="3.2" fill="#b91c1c" opacity="0.32"/><circle cx="513.7478281286687" cy="248.84029038112521" r="3.2" fill="#15803d" opacity="0.5"/><circle cx="345.89473148901544" cy="562.8378378378378" r="3.2" fill="#b91c1c" opacity="0.32"/><circle cx="275.77423664122136" cy="530.470719051149" r="3.2" fill="#b91c1c" opacity="0.32"/><circle cx="389.19671275763113" cy="406.88929551692587" r="3.2" fill="#15803d" opacity="0.5"/><circle cx="533.2477876106195" cy="387.7752808988764" r="3.2" fill="#b91c1c" opacity="0.32"/><circle cx="727.727835871789" cy="142.82057057057057" r="3.2" fill="#15803d" opacity="0.5"/><circle cx="347.62911952779143" cy="502.59679514941536" r="3.2" fill="#b91c1c" opacity="0.32"/><circle cx="449.0742014455584" cy="466.1555934128336" r="3.2" fill="#b91c1c" opacity="0.32"/><circle cx="277.57042122266404" cy="534.930515963512" r="3.2" fill="#b91c1c" opacity="0.32"/><circle cx="235.6639225181598" cy="528.3953488372093" r="3.2" fill="#15803d" opacity="0.5"/><circle cx="524.4198726819817" cy="392.05449420607573" r="3.2" fill="#b91c1c" opacity="0.32"/><circle cx="383.62692307692305" cy="540.0174672489082" r="3.2" fill="#b91c1c" opacity="0.32"/><circle cx="619.9754285714286" cy="208.57476635514018" r="3.2" fill="#15803d" opacity="0.5"/><circle cx="553.974427100631" cy="327.3906131718395" r="3.2" fill="#b91c1c" opacity="0.32"/><circle cx="279.7495867768595" cy="525.0952380952381" r="3.2" fill="#b91c1c" opacity="0.32"/><circle cx="575.2100296575896" cy="275.49247958745167" r="3.2" fill="#b91c1c" opacity="0.32"/><circle cx="412.69619643716896" cy="351.05585585585584" r="3.2" fill="#15803d" opacity="0.5"/><circle cx="493.3993808049535" cy="359.25824175824175" r="3.2" fill="#b91c1c" opacity="0.32"/><circle cx="519.1180284420885" cy="398.42135289323556" r="3.2" fill="#b91c1c" opacity="0.32"/><circle cx="388.5627644569817" cy="429.1734357848518" r="3.2" fill="#b91c1c" opacity="0.32"/><circle cx="475.2886178861789" cy="379.05882352941177" r="3.2" fill="#b91c1c" opacity="0.32"/><circle cx="483.4894284022432" cy="409.09865152590487" r="3.2" fill="#b91c1c" opacity="0.32"/><circle cx="540.5325506937033" cy="365.54262552301253" r="3.2" fill="#b91c1c" opacity="0.32"/><circle cx="400.4843770953467" cy="497.4160139251523" r="3.2" fill="#b91c1c" opacity="0.32"/><circle cx="373.386189258312" cy="427.6832253419726" r="3.2" fill="#b91c1c" opacity="0.32"/><circle cx="471.93014885703997" cy="379.6980461811723" r="3.2" fill="#b91c1c" opacity="0.32"/><circle cx="353.04265252385665" cy="502.7072072072072" r="3.2" fill="#b91c1c" opacity="0.32"/><circle cx="439.9235592714243" cy="409.6522633744856" r="3.2" fill="#b91c1c" opacity="0.32"/><circle cx="302.864406779661" cy="505.6562162162162" r="3.2" fill="#b91c1c" opacity="0.32"/><circle cx="256.8670564311134" cy="515.8575380359613" r="3.2" fill="#15803d" opacity="0.5"/><circle cx="564.528391694754" cy="370.59304603330065" r="3.2" fill="#b91c1c" opacity="0.32"/><circle cx="528.6571475107226" cy="335" r="3.2" fill="#b91c1c" opacity="0.32"/><circle cx="545.3325881442827" cy="397.39932697700505" r="3.2" fill="#b91c1c" opacity="0.32"/><circle cx="363.30879345603273" cy="504.3423478795329" r="3.2" fill="#b91c1c" opacity="0.32"/><circle cx="673.5320921117099" cy="177.08157524613222" r="3.2" fill="#15803d" opacity="0.5"/><circle cx="380.4916732751784" cy="445.41923680083636" r="3.2" fill="#b91c1c" opacity="0.32"/><circle cx="480.85433813048877" cy="390.0430107526882" r="3.2" fill="#b91c1c" opacity="0.32"/><circle cx="294.7370475514549" cy="478.78571428571433" r="3.2" fill="#15803d" opacity="0.5"/><circle cx="374.8118361153263" cy="436.08360128617363" r="3.2" fill="#b91c1c" opacity="0.32"/><circle cx="319.0098432373314" cy="545.971351835273" r="3.2" fill="#b91c1c" opacity="0.32"/><circle cx="393.40525950077506" cy="442.82834008097166" r="3.2" fill="#b91c1c" opacity="0.32"/><circle cx="426.92564917077925" cy="442.1284865112026" r="3.2" fill="#b91c1c" opacity="0.32"/><circle cx="389.0358676433443" cy="426.9887290167866" r="3.2" fill="#b91c1c" opacity="0.32"/><circle cx="493.7453463021968" cy="376.2034686971235" r="3.2" fill="#b91c1c" opacity="0.32"/><circle cx="479.571277719113" cy="371.85496183206106" r="3.2" fill="#b91c1c" opacity="0.32"/><circle cx="490.4062454479242" cy="442.4661803187694" r="3.2" fill="#b91c1c" opacity="0.32"/><circle cx="700.8508597285067" cy="165.0100334448161" r="3.2" fill="#15803d" opacity="0.5"/><circle cx="799.4559085133417" cy="108.36621004566211" r="3.2" fill="#b91c1c" opacity="0.32"/><circle cx="355.4392317380353" cy="483.17273673257023" r="3.2" fill="#b91c1c" opacity="0.32"/><circle cx="332.99986783849863" cy="535.234772978959" r="3.2" fill="#b91c1c" opacity="0.32"/><circle cx="319.3869397688095" cy="531.8810511756569" r="3.2" fill="#b91c1c" opacity="0.32"/><circle cx="473.90321595527263" cy="457.5448717948718" r="3.2" fill="#b91c1c" opacity="0.32"/><circle cx="411.4830354386085" cy="406.6811797752809" r="3.2" fill="#b91c1c" opacity="0.32"/><circle cx="506.4643482611959" cy="401.5830508474576" r="3.2" fill="#b91c1c" opacity="0.32"/><circle cx="485.8666454487588" cy="372.93839541547277" r="3.2" fill="#b91c1c" opacity="0.32"/><circle cx="467.253446447508" cy="430.84564393939394" r="3.2" fill="#b91c1c" opacity="0.32"/><circle cx="413.18861607142856" cy="491.7788565264293" r="3.2" fill="#b91c1c" opacity="0.32"/><circle cx="323.1149791615592" cy="506.0093867334168" r="3.2" fill="#b91c1c" opacity="0.32"/><circle cx="334.2317290552585" cy="456.4762633996937" r="3.2" fill="#b91c1c" opacity="0.32"/><circle cx="555.4536842105263" cy="291.1596467391305" r="3.2" fill="#b91c1c" opacity="0.32"/><circle cx="465.42444152431017" cy="445.2872928176795" r="3.2" fill="#b91c1c" opacity="0.32"/><circle cx="411.1025443330763" cy="562.3649122807018" r="3.2" fill="#b91c1c" opacity="0.32"/><circle cx="532.4659198501051" cy="421.2178448562868" r="3.2" fill="#b91c1c" opacity="0.32"/><circle cx="398.22315821718485" cy="413.0324074074074" r="3.2" fill="#b91c1c" opacity="0.32"/><circle cx="526.4818474264706" cy="380.38404327248145" r="3.2" fill="#b91c1c" opacity="0.32"/><circle cx="313.43102742529675" cy="517.9781241454745" r="3.2" fill="#b91c1c" opacity="0.32"/><circle cx="403.50588410546703" cy="440.9105263157895" r="3.2" fill="#b91c1c" opacity="0.32"/><circle cx="608.1330789946139" cy="340.24864864864867" r="3.2" fill="#b91c1c" opacity="0.32"/><circle cx="586.7313209271624" cy="358.65549036043586" r="3.2" fill="#b91c1c" opacity="0.32"/><circle cx="472.61673378646793" cy="427.6220657276996" r="3.2" fill="#b91c1c" opacity="0.32"/><circle cx="365.3727272727272" cy="494.0791556728232" r="3.2" fill="#b91c1c" opacity="0.32"/><circle cx="604.3365532381997" cy="267.54761904761904" r="3.2" fill="#b91c1c" opacity="0.32"/><circle cx="400.7046426389737" cy="525.6095054592165" r="3.2" fill="#b91c1c" opacity="0.32"/><circle cx="547.7384061833689" cy="397.530779753762" r="3.2" fill="#b91c1c" opacity="0.32"/><circle cx="351.50015807777424" cy="523.980549552331" r="3.2" fill="#b91c1c" opacity="0.32"/><circle cx="303.975292089638" cy="482.55696202531647" r="3.2" fill="#b91c1c" opacity="0.32"/><circle cx="340.73152848279756" cy="501.18847097301716" r="3.2" fill="#b91c1c" opacity="0.32"/><circle cx="579.7026510628134" cy="383.04545454545456" r="3.2" fill="#b91c1c" opacity="0.32"/><circle cx="561.209323794138" cy="392.09943111550825" r="3.2" fill="#b91c1c" opacity="0.32"/><circle cx="241.77256822953115" cy="569.3261520047876" r="3.2" fill="#b91c1c" opacity="0.32"/><circle cx="304.2602274656256" cy="547.5033394049788" r="3.2" fill="#b91c1c" opacity="0.32"/><circle cx="369.16736514135886" cy="502.55565265750374" r="3.2" fill="#b91c1c" opacity="0.32"/><circle cx="683.3308270676691" cy="198.45742092457425" r="3.2" fill="#b91c1c" opacity="0.32"/><circle cx="276.09511067866697" cy="563.025974025974" r="3.2" fill="#b91c1c" opacity="0.32"/><circle cx="450.23162583518933" cy="499.7650834403081" r="3.2" fill="#b91c1c" opacity="0.32"/><circle cx="469.894" cy="352.96545768566494" r="3.2" fill="#b91c1c" opacity="0.32"/><circle cx="412.4682926829268" cy="478.5951002227172" r="3.2" fill="#b91c1c" opacity="0.32"/><circle cx="708.6571696931748" cy="212.6827720839434" r="3.2" fill="#b91c1c" opacity="0.32"/><circle cx="565.821947206524" cy="344.0217391304348" r="3.2" fill="#b91c1c" opacity="0.32"/><circle cx="366.9162580158431" cy="535.8203592814372" r="3.2" fill="#b91c1c" opacity="0.32"/><circle cx="580.5126717780746" cy="304.21903635826186" r="3.2" fill="#b91c1c" opacity="0.32"/><circle cx="438.55187353090287" cy="478.88356739887166" r="3.2" fill="#b91c1c" opacity="0.32"/><circle cx="583.4848673946958" cy="288.62060301507535" r="3.2" fill="#b91c1c" opacity="0.32"/><circle cx="342.65925675051574" cy="529.1101301115242" r="3.2" fill="#b91c1c" opacity="0.32"/><circle cx="398.9738201860145" cy="431.64359861591697" r="3.2" fill="#b91c1c" opacity="0.32"/><circle cx="535.0660035140668" cy="408.6735397098872" r="3.2" fill="#b91c1c" opacity="0.32"/><circle cx="475.0754503524497" cy="463.7451719265191" r="3.2" fill="#b91c1c" opacity="0.32"/><circle cx="395.40488056367076" cy="438.1304121022431" r="3.2" fill="#b91c1c" opacity="0.32"/><circle cx="466.4494047619049" cy="403.90205162144275" r="3.2" fill="#b91c1c" opacity="0.32"/><circle cx="302.420331760767" cy="556.7687736358725" r="3.2" fill="#b91c1c" opacity="0.32"/><circle cx="729.3526838966202" cy="180.98695420660277" r="3.2" fill="#b91c1c" opacity="0.32"/><circle cx="594.7893004115226" cy="258.984591070723" r="3.2" fill="#b91c1c" opacity="0.32"/><circle cx="516.1791471128341" cy="265.8455657492354" r="3.2" fill="#15803d" opacity="0.5"/><circle cx="623.9753444525018" cy="231.4668435013262" r="3.2" fill="#b91c1c" opacity="0.32"/><circle cx="414.6021160022671" cy="480.08885298869143" r="3.2" fill="#b91c1c" opacity="0.32"/><circle cx="232.71010204697785" cy="562.3112513144059" r="3.2" fill="#b91c1c" opacity="0.32"/><circle cx="484.68507320178236" cy="378.99756097560976" r="3.2" fill="#b91c1c" opacity="0.32"/><circle cx="326.20035769288097" cy="577.6430823442137" r="3.2" fill="#b91c1c" opacity="0.32"/><circle cx="259.6650265440891" cy="537.4621026894865" r="3.2" fill="#b91c1c" opacity="0.32"/><circle cx="479.8473188729288" cy="451.14506601485107" r="3.2" fill="#b91c1c" opacity="0.32"/><circle cx="388.99240053643274" cy="509.98284313725486" r="3.2" fill="#b91c1c" opacity="0.32"/><circle cx="604.2774108322325" cy="273.38502673796785" r="3.2" fill="#b91c1c" opacity="0.32"/><circle cx="467.66262626262625" cy="453.5984703632887" r="3.2" fill="#b91c1c" opacity="0.32"/><circle cx="502.1685530210691" cy="466.32996383957925" r="3.2" fill="#b91c1c" opacity="0.32"/><circle cx="644.0720350326997" cy="280.5849940921622" r="3.2" fill="#b91c1c" opacity="0.32"/><circle cx="560.8093385214008" cy="271.2285974499089" r="3.2" fill="#15803d" opacity="0.5"/><circle cx="703.6841359773371" cy="189.2743705616527" r="3.2" fill="#b91c1c" opacity="0.32"/><circle cx="335.50167338882693" cy="528.5180055401662" r="3.2" fill="#b91c1c" opacity="0.32"/><circle cx="351.9591439688716" cy="470.00279029834724" r="3.2" fill="#b91c1c" opacity="0.32"/><circle cx="279.47228346456694" cy="559.0452688904016" r="3.2" fill="#b91c1c" opacity="0.32"/><circle cx="510.87578419071514" cy="404.66929133858264" r="3.2" fill="#b91c1c" opacity="0.32"/><circle cx="352.15921305182343" cy="529.7149283103739" r="3.2" fill="#b91c1c" opacity="0.32"/><circle cx="620.4368207472363" cy="214.02405063291138" r="3.2" fill="#15803d" opacity="0.5"/><circle cx="344.77724594992634" cy="489.1831395348837" r="3.2" fill="#b91c1c" opacity="0.32"/><circle cx="518.3074626865671" cy="374.1745810055866" r="3.2" fill="#b91c1c" opacity="0.32"/><circle cx="449.98365807668137" cy="430.213532513181" r="3.2" fill="#b91c1c" opacity="0.32"/><circle cx="289.35940594059406" cy="585.8461538461538" r="3.2" fill="#b91c1c" opacity="0.32"/><circle cx="424.8456632653061" cy="447.4904458598726" r="3.2" fill="#b91c1c" opacity="0.32"/><circle cx="642.1732283464567" cy="235.439672801636" r="3.2" fill="#b91c1c" opacity="0.32"/><circle cx="551.7726753773943" cy="339.50643776824035" r="3.2" fill="#b91c1c" opacity="0.32"/><circle cx="539.9631279012717" cy="388.17729430379745" r="3.2" fill="#b91c1c" opacity="0.32"/><circle cx="554.2567751445742" cy="399.34873075322514" r="3.2" fill="#b91c1c" opacity="0.32"/><circle cx="394.52809630867006" cy="493.66250789053504" r="3.2" fill="#b91c1c" opacity="0.32"/><circle cx="552.5694794788728" cy="407.6661787125867" r="3.2" fill="#b91c1c" opacity="0.32"/><circle cx="396.41783216783216" cy="567.4032073310424" r="3.2" fill="#b91c1c" opacity="0.32"/><circle cx="541.857215533322" cy="343.7303790710091" r="3.2" fill="#b91c1c" opacity="0.32"/><circle cx="542.0930323082912" cy="400.69984447900464" r="3.2" fill="#b91c1c" opacity="0.32"/><circle cx="350.22418757712876" cy="482.94940267041466" r="3.2" fill="#b91c1c" opacity="0.32"/><circle cx="279.2020676691729" cy="514.7378400659522" r="3.2" fill="#b91c1c" opacity="0.32"/><circle cx="571.2490454489468" cy="330.7166482910694" r="3.2" fill="#b91c1c" opacity="0.32"/><circle cx="405.8976510488632" cy="494.87689353531044" r="3.2" fill="#b91c1c" opacity="0.32"/><circle cx="648.5978074230617" cy="220.14960971379014" r="3.2" fill="#b91c1c" opacity="0.32"/><circle cx="543.3388746703591" cy="426.56575566456434" r="3.2" fill="#b91c1c" opacity="0.32"/><circle cx="487.3104054080946" cy="408.31013595369495" r="3.2" fill="#b91c1c" opacity="0.32"/><circle cx="562.4526681660193" cy="299.84391080617496" r="3.2" fill="#b91c1c" opacity="0.32"/><circle cx="439.01305767138194" cy="444.5487804878049" r="3.2" fill="#b91c1c" opacity="0.32"/><circle cx="583.1435363231686" cy="340.42909635274907" r="3.2" fill="#b91c1c" opacity="0.32"/><circle cx="422.20507399577167" cy="455.7679180887372" r="3.2" fill="#b91c1c" opacity="0.32"/><circle cx="541.636023981232" cy="373.01339285714283" r="3.2" fill="#b91c1c" opacity="0.32"/><circle cx="410.08962264150944" cy="483.9154228855722" r="3.2" fill="#b91c1c" opacity="0.32"/><circle cx="390.37366167023555" cy="437.7848101265823" r="3.2" fill="#b91c1c" opacity="0.32"/><circle cx="418.15171407731583" cy="498.9334303383048" r="3.2" fill="#b91c1c" opacity="0.32"/><circle cx="477.20355223182986" cy="450.40245261984387" r="3.2" fill="#b91c1c" opacity="0.32"/><circle cx="570.3447555755829" cy="423.11706847060236" r="3.2" fill="#b91c1c" opacity="0.32"/><circle cx="451.20763362441227" cy="441.2481458590853" r="3.2" fill="#b91c1c" opacity="0.32"/><circle cx="576.0742677824269" cy="292.9767441860465" r="3.2" fill="#b91c1c" opacity="0.32"/><circle cx="565.1586566096541" cy="405.8751578567563" r="3.2" fill="#b91c1c" opacity="0.32"/><circle cx="537.3888556021569" cy="361.7094769549456" r="3.2" fill="#b91c1c" opacity="0.32"/><circle cx="506.09248554913296" cy="343.69878048780487" r="3.2" fill="#b91c1c" opacity="0.32"/><circle cx="438.2114689373038" cy="459.2684989429175" r="3.2" fill="#b91c1c" opacity="0.32"/><circle cx="714.3118754357425" cy="178.0869111314106" r="3.2" fill="#b91c1c" opacity="0.32"/><circle cx="669.3339543087204" cy="247.73688103554554" r="3.2" fill="#b91c1c" opacity="0.32"/><circle cx="491.0725876810329" cy="349.8909090909091" r="3.2" fill="#b91c1c" opacity="0.32"/><circle cx="516.5865622175354" cy="366.28730561376426" r="3.2" fill="#b91c1c" opacity="0.32"/><circle cx="625.901738473167" cy="268.765306122449" r="3.2" fill="#b91c1c" opacity="0.32"/><circle cx="280.1180571171576" cy="529.8613424791769" r="3.2" fill="#b91c1c" opacity="0.32"/><circle cx="460.40913671481354" cy="402.8174157303371" r="3.2" fill="#b91c1c" opacity="0.32"/><circle cx="434.56546417759836" cy="480.84443200895356" r="3.2" fill="#b91c1c" opacity="0.32"/><circle cx="667.9877075404978" cy="296.41031941031946" r="3.2" fill="#b91c1c" opacity="0.32"/><circle cx="464.140154772141" cy="415.0736040609137" r="3.2" fill="#b91c1c" opacity="0.32"/><circle cx="444.84966485796355" cy="407.923590504451" r="3.2" fill="#b91c1c" opacity="0.32"/><circle cx="397.62595573440643" cy="453.0283055447848" r="3.2" fill="#b91c1c" opacity="0.32"/><circle cx="440.8685583631354" cy="443.0976183475449" r="3.2" fill="#b91c1c" opacity="0.32"/><circle cx="519.2837231002508" cy="414.6512114537445" r="3.2" fill="#b91c1c" opacity="0.32"/><circle cx="384.2945686900958" cy="456.9772200245533" r="3.2" fill="#b91c1c" opacity="0.32"/><circle cx="484.4862236628849" cy="442.9589566551592" r="3.2" fill="#b91c1c" opacity="0.32"/><circle cx="688.3429118773946" cy="189.94258373205736" r="3.2" fill="#b91c1c" opacity="0.32"/><circle cx="532.6600623484587" cy="374.86686701728024" r="3.2" fill="#b91c1c" opacity="0.32"/><circle cx="330.4495541999061" cy="538.742359413203" r="3.2" fill="#b91c1c" opacity="0.32"/><circle cx="233.80451127819552" cy="574.2280701754386" r="3.2" fill="#b91c1c" opacity="0.32"/><circle cx="338.42087415222306" cy="469.3370786516854" r="3.2" fill="#b91c1c" opacity="0.32"/><circle cx="540.5356710343007" cy="347.6039040260269" r="3.2" fill="#b91c1c" opacity="0.32"/><circle cx="389.05766062602964" cy="565.5491642084562" r="3.2" fill="#b91c1c" opacity="0.32"/><circle cx="429.3785934291581" cy="439.5845657944634" r="3.2" fill="#b91c1c" opacity="0.32"/><circle cx="459.59232514298503" cy="392.4368268434134" r="3.2" fill="#b91c1c" opacity="0.32"/><circle cx="397.47024442082886" cy="438.3529411764706" r="3.2" fill="#b91c1c" opacity="0.32"/><circle cx="567.7114907688069" cy="360.7264315408341" r="3.2" fill="#b91c1c" opacity="0.32"/><circle cx="403.41515151515154" cy="456.6371191135734" r="3.2" fill="#b91c1c" opacity="0.32"/><circle cx="415.6054333314992" cy="486.30585288089276" r="3.2" fill="#b91c1c" opacity="0.32"/><circle cx="611.3786027405076" cy="301.3087867658405" r="3.2" fill="#b91c1c" opacity="0.32"/><circle cx="737.2548812671776" cy="232.06216713787887" r="3.2" fill="#b91c1c" opacity="0.32"/><circle cx="801.02735207551" cy="181.178018018018" r="3.2" fill="#b91c1c" opacity="0.32"/><circle cx="686.745129079396" cy="187.05886627906978" r="3.2" fill="#b91c1c" opacity="0.32"/><circle cx="434.359659781288" cy="491.54305135951665" r="3.2" fill="#b91c1c" opacity="0.32"/><circle cx="689.5005825242717" cy="255.62431243124314" r="3.2" fill="#b91c1c" opacity="0.32"/><circle cx="511.75504397309885" cy="378.3497757847533" r="3.2" fill="#b91c1c" opacity="0.32"/><circle cx="557.8147920273577" cy="398.052348679598" r="3.2" fill="#b91c1c" opacity="0.32"/><circle cx="659.1403629364861" cy="244.63279132791325" r="3.2" fill="#b91c1c" opacity="0.32"/><circle cx="425.83078602620094" cy="466.1196702671972" r="3.2" fill="#b91c1c" opacity="0.32"/><circle cx="412.8111672462437" cy="427.06894508099566" r="3.2" fill="#b91c1c" opacity="0.32"/><circle cx="730.307466943597" cy="207.43963592649834" r="3.2" fill="#b91c1c" opacity="0.32"/><circle cx="480.7055073354328" cy="391.0344827586207" r="3.2" fill="#b91c1c" opacity="0.32"/><circle cx="257.9277731788079" cy="573.8651685393259" r="3.2" fill="#b91c1c" opacity="0.32"/><circle cx="547.1448126801154" cy="421.03287671232874" r="3.2" fill="#b91c1c" opacity="0.32"/><circle cx="416.69664233576646" cy="416.5680412371134" r="3.2" fill="#b91c1c" opacity="0.32"/><circle cx="281.41031746031746" cy="590.3136170996868" r="3.2" fill="#b91c1c" opacity="0.32"/><circle cx="389.4347826086957" cy="460.99078947368423" r="3.2" fill="#b91c1c" opacity="0.32"/><circle cx="428.57758620689657" cy="444.9405405405405" r="3.2" fill="#b91c1c" opacity="0.32"/><circle cx="585.4395345796836" cy="298.16759002770084" r="3.2" fill="#b91c1c" opacity="0.32"/><circle cx="553.9182805857345" cy="380.5170316301703" r="3.2" fill="#b91c1c" opacity="0.32"/><circle cx="420.3827351728846" cy="492.68091895341416" r="3.2" fill="#b91c1c" opacity="0.32"/><circle cx="339.2955330111011" cy="510.57849319615" r="3.2" fill="#b91c1c" opacity="0.32"/><circle cx="503.45980410275365" cy="379.78343492291145" r="3.2" fill="#b91c1c" opacity="0.32"/><circle cx="436.04469060351414" cy="477.1593688362919" r="3.2" fill="#b91c1c" opacity="0.32"/><circle cx="374.3896446122071" cy="496.0454502052898" r="3.2" fill="#b91c1c" opacity="0.32"/><circle cx="456.00137183620274" cy="406.7362514029181" r="3.2" fill="#b91c1c" opacity="0.32"/><circle cx="319.8306104901118" cy="533.7258064516129" r="3.2" fill="#b91c1c" opacity="0.32"/><circle cx="481.8204568023833" cy="383.88639200998756" r="3.2" fill="#b91c1c" opacity="0.32"/><circle cx="525.7785007072137" cy="301.4308176100629" r="3.2" fill="#15803d" opacity="0.5"/><circle cx="353.6698352757341" cy="476.80905861456483" r="3.2" fill="#b91c1c" opacity="0.32"/><circle cx="528.8224409175965" cy="457.8878925747604" r="3.2" fill="#b91c1c" opacity="0.32"/><circle cx="757.0948453608247" cy="143.21203438395418" r="3.2" fill="#b91c1c" opacity="0.32"/><circle cx="490.6742474916388" cy="393.6607629427793" r="3.2" fill="#b91c1c" opacity="0.32"/><circle cx="375.20135710904214" cy="468.34299607256406" r="3.2" fill="#b91c1c" opacity="0.32"/><circle cx="257.0885529157667" cy="565.953795379538" r="3.2" fill="#b91c1c" opacity="0.32"/><circle cx="474.6347273689783" cy="422.3441825664048" r="3.2" fill="#b91c1c" opacity="0.32"/><circle cx="451.7077113465852" cy="455.940414507772" r="3.2" fill="#b91c1c" opacity="0.32"/><circle cx="491.0910230621033" cy="413.27107536490917" r="3.2" fill="#b91c1c" opacity="0.32"/><circle cx="391.71958041958044" cy="471.70622406639006" r="3.2" fill="#b91c1c" opacity="0.32"/><circle cx="276.4898175085957" cy="567.5330674642738" r="3.2" fill="#b91c1c" opacity="0.32"/><circle cx="416.98486328125" cy="510.9666666666667" r="3.2" fill="#b91c1c" opacity="0.32"/><circle cx="455.43793463143254" cy="424.01033591731266" r="3.2" fill="#b91c1c" opacity="0.32"/><circle cx="594.0169421487603" cy="235.46341463414637" r="3.2" fill="#15803d" opacity="0.5"/><circle cx="547.4268797535381" cy="435.86409155937054" r="3.2" fill="#b91c1c" opacity="0.32"/><circle cx="415.7661678423099" cy="490.4622641509434" r="3.2" fill="#b91c1c" opacity="0.32"/><circle cx="375.2074471999411" cy="547.3572612388647" r="3.2" fill="#b91c1c" opacity="0.32"/><circle cx="354.26248077192" cy="504.8114548494983" r="3.2" fill="#b91c1c" opacity="0.32"/><circle cx="383.5320693828156" cy="404.71803852889667" r="3.2" fill="#15803d" opacity="0.5"/><circle cx="416.8440204563336" cy="505.2425925925926" r="3.2" fill="#b91c1c" opacity="0.32"/><circle cx="633.4032461243838" cy="284.47288343558284" r="3.2" fill="#b91c1c" opacity="0.32"/><circle cx="430.1526320208211" cy="458.33232246651505" r="3.2" fill="#b91c1c" opacity="0.32"/><circle cx="272.68528464017186" cy="525.2710997442455" r="3.2" fill="#b91c1c" opacity="0.32"/><circle cx="500.0073279246271" cy="356.183562126012" r="3.2" fill="#b91c1c" opacity="0.32"/><circle cx="307.79787234042556" cy="508.7105263157895" r="3.2" fill="#b91c1c" opacity="0.32"/><circle cx="323.7821948488242" cy="474.18589132507145" r="3.2" fill="#b91c1c" opacity="0.32"/><circle cx="506.58055083801463" cy="422.5222799941688" r="3.2" fill="#b91c1c" opacity="0.32"/><circle cx="242.24812286689422" cy="525.2120141342756" r="3.2" fill="#15803d" opacity="0.5"/><circle cx="323.59850042326764" cy="546.9839298758218" r="3.2" fill="#b91c1c" opacity="0.32"/><circle cx="524.1491002570694" cy="324.6779661016949" r="3.2" fill="#b91c1c" opacity="0.32"/><circle cx="406.61993097497844" cy="475.2107843137255" r="3.2" fill="#b91c1c" opacity="0.32"/><circle cx="690.5127756214387" cy="228.984581725113" r="3.2" fill="#b91c1c" opacity="0.32"/><circle cx="485.27559457846735" cy="432.1584309730005" r="3.2" fill="#b91c1c" opacity="0.32"/><circle cx="500.3739316239316" cy="399.77029265599117" r="3.2" fill="#b91c1c" opacity="0.32"/><circle cx="410.34978540772534" cy="444.3558648111332" r="3.2" fill="#b91c1c" opacity="0.32"/><circle cx="551.4029411764706" cy="365.64399421128803" r="3.2" fill="#b91c1c" opacity="0.32"/><circle cx="420.93413830954995" cy="388.5193164933135" r="3.2" fill="#15803d" opacity="0.5"/><circle cx="478.5296354992076" cy="366.42979942693404" r="3.2" fill="#b91c1c" opacity="0.32"/><circle cx="415.8908655490934" cy="442.34562697576393" r="3.2" fill="#b91c1c" opacity="0.32"/><circle cx="391.5300586510264" cy="468.8402777777778" r="3.2" fill="#b91c1c" opacity="0.32"/><circle cx="382.21697302868927" cy="509.8349431818182" r="3.2" fill="#b91c1c" opacity="0.32"/><circle cx="441.8709872804361" cy="516.3636363636364" r="3.2" fill="#b91c1c" opacity="0.32"/><circle cx="497.30984380675625" cy="371.33868613138685" r="3.2" fill="#b91c1c" opacity="0.32"/><circle cx="530.4797539252594" cy="399.9013929618768" r="3.2" fill="#b91c1c" opacity="0.32"/><circle cx="501.4588082057961" cy="390.79041916167665" r="3.2" fill="#b91c1c" opacity="0.32"/><circle cx="407.8514687392845" cy="500.9691708583482" r="3.2" fill="#b91c1c" opacity="0.32"/><circle cx="566.1017823014356" cy="352.3623393316195" r="3.2" fill="#b91c1c" opacity="0.32"/><circle cx="292.5542112610516" cy="532.0906515580737" r="3.2" fill="#b91c1c" opacity="0.32"/><circle cx="524.2689133425034" cy="441.71658711217185" r="3.2" fill="#b91c1c" opacity="0.32"/><circle cx="369.7033613445378" cy="561.9866401364411" r="3.2" fill="#b91c1c" opacity="0.32"/><circle cx="322.319441550323" cy="498.28260869565213" r="3.2" fill="#b91c1c" opacity="0.32"/><circle cx="239.8167641325536" cy="557.61101742552" r="3.2" fill="#b91c1c" opacity="0.32"/><text x="445" y="732" class="label" text-anchor="middle">Renter-weighted COI</text><text x="22" y="370" class="label" transform="rotate(-90 22 370)" text-anchor="middle">HCV-weighted COI</text></svg>