<svg xmlns="http://www.w3.org/2000/svg" width="980" height="680" viewBox="0 0 980 680"><style>
text{font-family:Lato,Arial,sans-serif}
.title{font-family:Montserrat,Arial,sans-serif;font-size:22px;font-weight:700;fill:#1f2a3d}
.subtitle{font-size:13px;fill:#687386}
.caption{font-size:11px;fill:#687386}
.axis{font-size:12px;fill:#687386}
.label{font-size:13px;fill:#1f2a3d}
.inbar-label{font-size:12px;font-weight:700;fill:#fff}
.inbar-dark{font-size:12px;font-weight:700;fill:#1f2a3d}
.small-label{font-size:12px;fill:#687386}
.value{font-size:13px;font-weight:700;fill:#1f2a3d}
.grid{stroke:#e8ecf2;stroke-width:1}
.baseline{stroke:#4d596b;stroke-width:1.3}
.hcv{fill:#b98678}
.renter{fill:#77a9bf}
.neg{fill:#b98678}
.pos{fill:#d8b36c}
</style><text x="0" y="28" class="title">Most metros fall below the benchmark</text><text x="0" y="50" class="subtitle">Below diagonal = lower HCV opportunity exposure</text><line x1="58" y1="86" x2="58" y2="585" class="grid"/><line x1="58" y1="585" x2="950" y2="585" class="grid"/><text x="58" y="611" class="axis" text-anchor="middle">0</text><text x="46" y="590" class="axis" text-anchor="end">0</text><line x1="281" y1="86" x2="281" y2="585" class="grid"/><line x1="58" y1="460.25" x2="950" y2="460.25" class="grid"/><text x="281" y="611" class="axis" text-anchor="middle">20</text><text x="46" y="465.25" class="axis" text-anchor="end">20</text><line x1="504" y1="86" x2="504" y2="585" class="grid"/><line x1="58" y1="335.5" x2="950" y2="335.5" class="grid"/><text x="504" y="611" class="axis" text-anchor="middle">40</text><text x="46" y="340.5" class="axis" text-anchor="end">40</text><line x1="727" y1="86" x2="727" y2="585" class="grid"/><line x1="58" y1="210.75" x2="950" y2="210.75" class="grid"/><text x="727" y="611" class="axis" text-anchor="middle">60</text><text x="46" y="215.75" class="axis" text-anchor="end">60</text><line x1="950" y1="86" x2="950" y2="585" class="grid"/><line x1="58" y1="86" x2="950" y2="86" class="grid"/><text x="950" y="611" class="axis" text-anchor="middle">80</text><text x="46" y="91" class="axis" text-anchor="end">80</text><line x1="58" y1="585" x2="950" y2="86" class="baseline" stroke-dasharray="8 8"/><text x="822" y="108" class="small-label">same exposure</text><circle cx="438.76750897314247" cy="419.5485603932584" r="4.3" fill="#b98678" opacity="0.42"/><circle cx="539.8325696101831" cy="413.3712095458254" r="4.3" fill="#b98678" opacity="0.42"/><circle cx="267.1997568389058" cy="508.22231785428346" r="4.3" fill="#b98678" opacity="0.42"/><circle cx="496.9877612844593" cy="354.8723773640662" r="4.3" fill="#b98678" opacity="0.42"/><circle cx="698.3250768242056" cy="322.971349477492" r="4.3" fill="#b98678" opacity="0.42"/><circle cx="462.1248384708574" cy="419.9156274395004" r="4.3" fill="#b98678" opacity="0.42"/><circle cx="277.15160337552743" cy="512.4132120946538" r="4.3" fill="#b98678" opacity="0.42"/><circle cx="587.7901512588797" cy="344.8822321172077" r="4.3" fill="#b98678" opacity="0.42"/><circle cx="525.0419690980955" cy="368.4177357836339" r="4.3" fill="#b98678" opacity="0.42"/><circle cx="442.3550915095638" cy="443.0567538593482" r="4.3" fill="#b98678" opacity="0.42"/><circle cx="837.2701352757543" cy="169.40948905109485" r="4.3" fill="#b98678" opacity="0.42"/><circle cx="934.4641193404868" cy="100.52378218510785" r="4.3" fill="#b98678" opacity="0.42"/><circle cx="609.8007860653007" cy="317.57166560306314" r="4.3" fill="#b98678" opacity="0.42"/><circle cx="853.3846542811546" cy="225.9603711503027" r="4.3" fill="#b98678" opacity="0.42"/><circle cx="302.158391070054" cy="482.345406420765" r="4.3" fill="#b98678" opacity="0.42"/><circle cx="771.4439043359906" cy="204.1469049043062" r="4.3" fill="#b98678" opacity="0.42"/><circle cx="629.276792508048" cy="292.3550831042239" r="4.3" fill="#b98678" opacity="0.42"/><circle cx="587.2012470308789" cy="337.23861350574714" r="4.3" fill="#b98678" opacity="0.42"/><circle cx="592.7671454030013" cy="374.34321081145634" r="4.3" fill="#b98678" opacity="0.42"/><circle cx="550.397190482746" cy="405.744234662099" r="4.3" fill="#b98678" opacity="0.42"/><circle cx="567.2119739181979" cy="337.23561337625176" r="4.3" fill="#b98678" opacity="0.42"/><circle cx="349.87483593968165" cy="504.26501828457447" r="4.3" fill="#b98678" opacity="0.42"/><circle cx="730.8174588439826" cy="282.29905744290147" r="4.3" fill="#b98678" opacity="0.42"/><circle cx="261.19103472587886" cy="529.0085378208014" r="4.3" fill="#b98678" opacity="0.42"/><circle cx="657.2518832555608" cy="313.7628351955307" r="4.3" fill="#b98678" opacity="0.42"/><circle cx="671.1192337763878" cy="236.95052546483424" r="5.2" fill="#d8b36c" opacity="0.68"/><circle cx="825.6511802575108" cy="173.71835585585592" r="4.3" fill="#b98678" opacity="0.42"/><circle cx="456.5001681648627" cy="467.80654518821024" r="4.3" fill="#b98678" opacity="0.42"/><circle cx="339.4957570715474" cy="509.8691646919431" r="4.3" fill="#b98678" opacity="0.42"/><circle cx="465.48274134790523" cy="406.20101123595504" r="4.3" fill="#b98678" opacity="0.42"/><circle cx="312.195103366303" cy="487.0547675899395" r="4.3" fill="#b98678" opacity="0.42"/><circle cx="361.0126782531195" cy="405.3374129526462" r="5.2" fill="#d8b36c" opacity="0.68"/><circle cx="776.7287355469907" cy="208.722170781893" r="4.3" fill="#b98678" opacity="0.42"/><circle cx="724.0612548294977" cy="242.6407700810612" r="4.3" fill="#b98678" opacity="0.42"/><circle cx="620.4440079893475" cy="327.38287751677854" r="4.3" fill="#b98678" opacity="0.42"/><circle cx="525.2954043839758" cy="354.19147471910117" r="4.3" fill="#b98678" opacity="0.42"/><circle cx="476.4494700162438" cy="476.7256519594023" r="4.3" fill="#b98678" opacity="0.42"/><circle cx="757.2536666666666" cy="202.14918055555557" r="4.3" fill="#b98678" opacity="0.42"/><circle cx="732.3066615325375" cy="250.05080291970802" r="4.3" fill="#b98678" opacity="0.42"/><circle cx="714.9756725755996" cy="223.20063476562495" r="4.3" fill="#b98678" opacity="0.42"/><circle cx="754.690828618361" cy="223.021902593819" r="4.3" fill="#b98678" opacity="0.42"/><circle cx="677.8068103338023" cy="277.98997821350764" r="4.3" fill="#b98678" opacity="0.42"/><circle cx="848.7078232808099" cy="188.0488072791681" r="4.3" fill="#b98678" opacity="0.42"/><circle cx="978.9711674118231" cy="88.67160051313004" r="4.3" fill="#b98678" opacity="0.42"/><circle cx="482.80597590814983" cy="390.2847891566265" r="4.3" fill="#b98678" opacity="0.42"/><circle cx="935.9592592592594" cy="89.08890550239238" r="5.2" fill="#d8b36c" opacity="0.68"/><circle cx="726.5499530663328" cy="258.0702775518503" r="4.3" fill="#b98678" opacity="0.42"/><circle cx="682.8139039570119" cy="320.95733843182296" r="4.3" fill="#b98678" opacity="0.42"/><circle cx="199.6445011953923" cy="505.07075722983257" r="5.2" fill="#d8b36c" opacity="0.68"/><circle cx="309.14665454545457" cy="509.6726815823606" r="4.3" fill="#b98678" opacity="0.42"/><circle cx="601.3775737373136" cy="374.3369448014853" r="4.3" fill="#b98678" opacity="0.42"/><circle cx="483.42025786713293" cy="422.2605724838412" r="4.3" fill="#b98678" opacity="0.42"/><circle cx="907.8488317757009" cy="125.7018417939342" r="4.3" fill="#b98678" opacity="0.42"/><circle cx="506.6656039298787" cy="470.577608929532" r="4.3" fill="#b98678" opacity="0.42"/><circle cx="495.89327236236466" cy="435.21918876167524" r="4.3" fill="#b98678" opacity="0.42"/><circle cx="510.9462995211145" cy="415.5757226056945" r="4.3" fill="#b98678" opacity="0.42"/><circle cx="490.0531144781145" cy="351.214364640884" r="4.3" fill="#b98678" opacity="0.42"/><circle cx="598.5788944723619" cy="301.4516185647426" r="4.3" fill="#b98678" opacity="0.42"/><circle cx="643.3861035669021" cy="300.53799002138277" r="4.3" fill="#b98678" opacity="0.42"/><circle cx="570.4329498525074" cy="302.885411311054" r="4.3" fill="#b98678" opacity="0.42"/><circle cx="645.4903150668138" cy="274.2645171813832" r="4.3" fill="#b98678" opacity="0.42"/><circle cx="470.41938695821943" cy="386.4988778265272" r="4.3" fill="#b98678" opacity="0.42"/><circle cx="602.9462985918285" cy="384.88719787234044" r="4.3" fill="#b98678" opacity="0.42"/><circle cx="580.4832862835552" cy="369.90845583277144" r="4.3" fill="#b98678" opacity="0.42"/><circle cx="834.9248197216166" cy="141.85872905027935" r="5.2" fill="#d8b36c" opacity="0.68"/><circle cx="531.0647302032235" cy="394.5953826955075" r="4.3" fill="#b98678" opacity="0.42"/><circle cx="627.9651777970512" cy="289.3494757688723" r="4.3" fill="#b98678" opacity="0.42"/><circle cx="648.1604280236062" cy="368.61843169857445" r="4.3" fill="#b98678" opacity="0.42"/><circle cx="523.2608340498709" cy="350.29680004612544" r="4.3" fill="#b98678" opacity="0.42"/><circle cx="580.7171141491476" cy="401.0112800204395" r="4.3" fill="#b98678" opacity="0.42"/><circle cx="442.0047138420586" cy="435.3604848484848" r="4.3" fill="#b98678" opacity="0.42"/><circle cx="503.98982568201126" cy="450.74376306847887" r="4.3" fill="#b98678" opacity="0.42"/><circle cx="473.6459606245757" cy="387.47916666666663" r="4.3" fill="#b98678" opacity="0.42"/><circle cx="661.2300269541779" cy="293.01237157534246" r="4.3" fill="#b98678" opacity="0.42"/><circle cx="512.1849250840893" cy="373.4660237014624" r="4.3" fill="#b98678" opacity="0.42"/><circle cx="670.7577533385703" cy="271.6117938066465" r="4.3" fill="#b98678" opacity="0.42"/><circle cx="676.3888690210104" cy="307.0316504004004" r="4.3" fill="#b98678" opacity="0.42"/><circle cx="454.62955539358603" cy="425.42694025569574" r="4.3" fill="#b98678" opacity="0.42"/><circle cx="339.51538354589945" cy="506.78893505991493" r="4.3" fill="#b98678" opacity="0.42"/><circle cx="652.8185998978028" cy="304.0669895448955" r="4.3" fill="#b98678" opacity="0.42"/><circle cx="587.1454351112471" cy="423.2523137219685" r="4.3" fill="#b98678" opacity="0.42"/><circle cx="390.2228623649078" cy="508.7698551651931" r="4.3" fill="#b98678" opacity="0.42"/><circle cx="858.3062293605524" cy="152.5642733134921" r="4.3" fill="#b98678" opacity="0.42"/><circle cx="634.615678274807" cy="373.72928669410146" r="4.3" fill="#b98678" opacity="0.42"/><circle cx="565.4643104483878" cy="343.3979555374241" r="4.3" fill="#b98678" opacity="0.42"/><circle cx="315.59646448264675" cy="430.76363636363635" r="5.2" fill="#d8b36c" opacity="0.68"/><circle cx="615.2891515302314" cy="327.21659999999997" r="4.3" fill="#b98678" opacity="0.42"/><circle cx="517.881367823479" cy="367.2435562015504" r="4.3" fill="#b98678" opacity="0.42"/><circle cx="528.1049498956158" cy="410.9974410393528" r="4.3" fill="#b98678" opacity="0.42"/><circle cx="334.2410725652451" cy="470.1239707835325" r="4.3" fill="#b98678" opacity="0.42"/><circle cx="330.7509276437848" cy="501.022557814992" r="4.3" fill="#b98678" opacity="0.42"/><circle cx="479.042978088316" cy="397.35609860533395" r="4.3" fill="#b98678" opacity="0.42"/><circle cx="743.9179041501578" cy="263.24927422747885" r="4.3" fill="#b98678" opacity="0.42"/><circle cx="700.1489215390682" cy="294.75151805251636" r="4.3" fill="#b98678" opacity="0.42"/><circle cx="518.3185119663767" cy="462.0529488727858" r="4.3" fill="#b98678" opacity="0.42"/><circle cx="306.00508427742466" cy="525.8198170731707" r="4.3" fill="#b98678" opacity="0.42"/><circle cx="551.9449999999999" cy="300.8176949356913" r="5.2" fill="#d8b36c" opacity="0.68"/><circle cx="622.2119036482694" cy="311.5395323599053" r="4.3" fill="#b98678" opacity="0.42"/><circle cx="606.8596076923077" cy="349.09349559955996" r="4.3" fill="#b98678" opacity="0.42"/><circle cx="692.5322039835853" cy="311.04571350164656" r="4.3" fill="#b98678" opacity="0.42"/><circle cx="232.31524978089394" cy="501.5425104384134" r="4.3" fill="#b98678" opacity="0.42"/><circle cx="738.2421487603307" cy="212.2364298323036" r="4.3" fill="#b98678" opacity="0.42"/><circle cx="242.72459160593112" cy="481.72082139446036" r="4.3" fill="#b98678" opacity="0.42"/><circle cx="320.58445217471433" cy="471.77970088626296" r="4.3" fill="#b98678" opacity="0.42"/><circle cx="490.1775296777841" cy="347.975" r="4.3" fill="#b98678" opacity="0.42"/><circle cx="389.5497213472256" cy="435.99586713995944" r="4.3" fill="#b98678" opacity="0.42"/><circle cx="444.4639736003641" cy="447.6561904761905" r="4.3" fill="#b98678" opacity="0.42"/><circle cx="324.62420440636475" cy="442.96811926605506" r="4.3" fill="#b98678" opacity="0.42"/><circle cx="494.0357305773343" cy="367.99557346169945" r="4.3" fill="#b98678" opacity="0.42"/><circle cx="634.6640354956212" cy="297.38900203665986" r="4.3" fill="#b98678" opacity="0.42"/><circle cx="440.5416878837802" cy="454.42207319026267" r="4.3" fill="#b98678" opacity="0.42"/><circle cx="572.265068015347" cy="342.9469254937163" r="4.3" fill="#b98678" opacity="0.42"/><circle cx="691.7838649054983" cy="247.0163660955816" r="4.3" fill="#b98678" opacity="0.42"/><circle cx="243.09091656391286" cy="459.46023901808786" r="5.2" fill="#d8b36c" opacity="0.68"/><circle cx="339.99886025768086" cy="462.20757254464286" r="4.3" fill="#b98678" opacity="0.42"/><circle cx="604.5936134453782" cy="316.6301419060967" r="4.3" fill="#b98678" opacity="0.42"/><circle cx="589.1709204038507" cy="227.5380444646098" r="5.2" fill="#d8b36c" opacity="0.68"/><circle cx="381.21958401139136" cy="507.33228764478764" r="4.3" fill="#b98678" opacity="0.42"/><circle cx="294.3480820610687" cy="478.4908728687917" r="4.3" fill="#b98678" opacity="0.42"/><circle cx="434.86592747195414" cy="368.3709972552607" r="5.2" fill="#d8b36c" opacity="0.68"/><circle cx="613.329203539823" cy="351.3390449438202" r="4.3" fill="#b98678" opacity="0.42"/><circle cx="854.2683744411609" cy="133.06690127627627" r="5.2" fill="#d8b36c" opacity="0.68"/><circle cx="383.36829808165277" cy="453.6532156777826" r="4.3" fill="#b98678" opacity="0.42"/><circle cx="509.04748290199734" cy="421.1815019875071" r="4.3" fill="#b98678" opacity="0.42"/><circle cx="296.57335518141156" cy="482.4648704746294" r="4.3" fill="#b98678" opacity="0.42"/><circle cx="244.65585956416464" cy="476.64156976744187" r="5.2" fill="#d8b36c" opacity="0.68"/><circle cx="602.3923978226774" cy="355.15212965862816" r="4.3" fill="#b98678" opacity="0.42"/><circle cx="427.9655769230769" cy="486.9977074235808" r="4.3" fill="#b98678" opacity="0.42"/><circle cx="720.7751142857143" cy="191.65858644859816" r="5.2" fill="#d8b36c" opacity="0.68"/><circle cx="639.007206908004" cy="297.53199280847844" r="4.3" fill="#b98678" opacity="0.42"/><circle cx="299.2730991735537" cy="473.70093537414965" r="4.3" fill="#b98678" opacity="0.42"/><circle cx="665.3157589646805" cy="251.28704877524711" r="4.3" fill="#b98678" opacity="0.42"/><circle cx="463.97917669715935" cy="318.6194144144144" r="5.2" fill="#d8b36c" opacity="0.68"/><circle cx="563.9614551083591" cy="325.92832613814755" r="4.3" fill="#b98678" opacity="0.42"/><circle cx="595.8240019032542" cy="360.82545552450813" r="4.3" fill="#b98678" opacity="0.42"/><circle cx="434.0805359661495" cy="388.2277579582876" r="4.3" fill="#b98678" opacity="0.42"/><circle cx="541.5242321589883" cy="343.57205882352946" r="4.3" fill="#b98678" opacity="0.42"/><circle cx="551.6841251872236" cy="370.33969127040456" r="4.3" fill="#b98678" opacity="0.42"/><circle cx="622.3542155816435" cy="331.52816095711296" r="4.3" fill="#b98678" opacity="0.42"/><circle cx="448.8500894014573" cy="449.0367695511625" r="4.3" fill="#b98678" opacity="0.42"/><circle cx="415.278445581131" cy="386.8998740100792" r="4.3" fill="#b98678" opacity="0.42"/><circle cx="537.3634621951106" cy="344.1416518650089" r="4.3" fill="#b98678" opacity="0.42"/><circle cx="390.0750639601113" cy="453.7516007078507" r="4.3" fill="#b98678" opacity="0.42"/><circle cx="497.71085398626457" cy="370.83299897119343" r="4.3" fill="#b98678" opacity="0.42"/><circle cx="327.90979284369115" cy="456.37937837837836" r="4.3" fill="#b98678" opacity="0.42"/><circle cx="270.924186578546" cy="465.4694847856155" r="5.2" fill="#d8b36c" opacity="0.68"/><circle cx="652.0823963773896" cy="336.02844637610184" r="4.3" fill="#b98678" opacity="0.42"/><circle cx="607.641910527173" cy="304.3125" r="4.3" fill="#b98678" opacity="0.42"/><circle cx="628.3009286454168" cy="359.9147574312956" r="4.3" fill="#b98678" opacity="0.42"/><circle cx="402.79367189275166" cy="455.2086278426552" r="4.3" fill="#b98678" opacity="0.42"/><circle cx="787.1258696717294" cy="163.5959036568214" r="5.2" fill="#d8b36c" opacity="0.68"/><circle cx="424.0813507798044" cy="402.7039270778881" r="4.3" fill="#b98678" opacity="0.42"/><circle cx="548.4195411283278" cy="353.3597542242704" r="4.3" fill="#b98678" opacity="0.42"/><circle cx="317.84089779985806" cy="432.4358418367347" r="5.2" fill="#d8b36c" opacity="0.68"/><circle cx="417.04466363176533" cy="394.38520900321544" r="4.3" fill="#b98678" opacity="0.42"/><circle cx="347.91219467736056" cy="492.30304386750225" r="4.3" fill="#b98678" opacity="0.42"/><circle cx="440.0798492704047" cy="400.3952530364372" r="4.3" fill="#b98678" opacity="0.42"/><circle cx="481.60788758379874" cy="399.77163351623227" r="4.3" fill="#b98678" opacity="0.42"/><circle cx="434.6666582470321" cy="386.281028177458" r="4.3" fill="#b98678" opacity="0.42"/><circle cx="564.3900679188328" cy="341.02773371404396" r="4.3" fill="#b98678" opacity="0.42"/><circle cx="546.8299718409012" cy="337.15290348964015" r="4.3" fill="#b98678" opacity="0.42"/><circle cx="560.2532929715951" cy="400.07254281976054" r="4.3" fill="#b98678" opacity="0.42"/><circle cx="820.9707873303166" cy="152.8392976588629" r="5.2" fill="#d8b36c" opacity="0.68"/><circle cx="943.1314866581956" cy="102.36560502283106" r="4.3" fill="#b98678" opacity="0.42"/><circle cx="393.0441593198993" cy="436.3449921956295" r="4.3" fill="#b98678" opacity="0.42"/><circle cx="365.24428071102886" cy="482.7359852080367" r="4.3" fill="#b98678" opacity="0.42"/><circle cx="348.3793753802473" cy="479.7475795297372" r="4.3" fill="#b98678" opacity="0.42"/><circle cx="539.8078731001433" cy="413.50873397435896" r="4.3" fill="#b98678" opacity="0.42"/><circle cx="462.4762050156094" cy="368.18555126404493" r="4.3" fill="#b98678" opacity="0.42"/><circle cx="580.1474981235928" cy="363.64275423728816" r="4.3" fill="#b98678" opacity="0.42"/><circle cx="554.6292329726289" cy="338.11832020057307" r="4.3" fill="#b98678" opacity="0.42"/><circle cx="531.5695475433015" cy="389.71781486742424" r="4.3" fill="#b98678" opacity="0.42"/><circle cx="464.58922991071427" cy="444.01365965480045" r="4.3" fill="#b98678" opacity="0.42"/><circle cx="352.998001961265" cy="456.69407853566963" r="4.3" fill="#b98678" opacity="0.42"/><circle cx="366.77041988512576" cy="412.55652756508425" r="4.3" fill="#b98678" opacity="0.42"/><circle cx="640.8398421052632" cy="265.2476137907609" r="4.3" fill="#b98678" opacity="0.42"/><circle cx="529.3036136662287" cy="402.5863555643251" r="4.3" fill="#b98678" opacity="0.42"/><circle cx="462.00481881264454" cy="506.9108771929824" r="4.3" fill="#b98678" opacity="0.42"/><circle cx="612.3605562587413" cy="381.13875818444126" r="4.3" fill="#b98678" opacity="0.42"/><circle cx="446.04869045795675" cy="373.8449487433862" r="4.3" fill="#b98678" opacity="0.42"/><circle cx="604.9469554227941" cy="344.75292427315753" r="4.3" fill="#b98678" opacity="0.42"/><circle cx="341.0006617546732" cy="467.3590784796281" r="4.3" fill="#b98678" opacity="0.42"/><circle cx="452.59340086399527" cy="398.68634398496243" r="4.3" fill="#b98678" opacity="0.42"/><circle cx="706.1037589766606" cy="308.98942084942087" r="4.3" fill="#b98678" opacity="0.42"/><circle cx="679.5893587042068" cy="325.39123158903124" r="4.3" fill="#b98678" opacity="0.42"/><circle cx="538.2140646354575" cy="386.845376425218" r="4.3" fill="#b98678" opacity="0.42"/><circle cx="405.35065656565655" cy="446.0633905013193" r="4.3" fill="#b98678" opacity="0.42"/><circle cx="701.4002854006586" cy="244.2076105442177" r="4.3" fill="#b98678" opacity="0.42"/><circle cx="449.1229739360619" cy="474.1591843288375" r="4.3" fill="#b98678" opacity="0.42"/><circle cx="631.2814698827292" cy="360.03189124487005" r="4.3" fill="#b98678" opacity="0.42"/><circle cx="388.164084729687" cy="472.7076682618092" r="4.3" fill="#b98678" opacity="0.42"/><circle cx="329.28605631105154" cy="435.79629294755875" r="4.3" fill="#b98678" opacity="0.42"/><circle cx="374.82294917591025" cy="452.3982982420278" r="4.3" fill="#b98678" opacity="0.42"/><circle cx="670.8816177055967" cy="347.12443181818185" r="4.3" fill="#b98678" opacity="0.42"/><circle cx="647.9704400338487" cy="355.19217165471184" r="4.3" fill="#b98678" opacity="0.42"/><circle cx="252.22379286214135" cy="513.1138390185517" r="4.3" fill="#b98678" opacity="0.42"/><circle cx="329.6390595824139" cy="493.66815421979356" r="4.3" fill="#b98678" opacity="0.42"/><circle cx="410.05179125846126" cy="453.61655477874" r="4.3" fill="#b98678" opacity="0.42"/><circle cx="799.2654135338346" cy="182.6433090024331" r="4.3" fill="#b98678" opacity="0.42"/><circle cx="294.74560934079295" cy="507.4999304267161" r="4.3" fill="#b98678" opacity="0.42"/><circle cx="510.48140311804013" cy="451.12995827984594" r="4.3" fill="#b98678" opacity="0.42"/><circle cx="534.8409" cy="320.321006044905" r="4.3" fill="#b98678" opacity="0.42"/><circle cx="463.6968292682927" cy="432.26599109131405" r="4.3" fill="#b98678" opacity="0.42"/><circle cx="830.6419380087665" cy="195.3191129819424" r="4.3" fill="#b98678" opacity="0.42"/><circle cx="653.6849679280825" cy="312.3515139751553" r="4.3" fill="#b98678" opacity="0.42"/><circle cx="407.2629196529611" cy="483.25778443113774" r="4.3" fill="#b98678" opacity="0.42"/><circle cx="671.8851433695036" cy="276.8844627549512" r="4.3" fill="#b98678" opacity="0.42"/><circle cx="496.01148776328523" cy="432.523035950066" r="4.3" fill="#b98678" opacity="0.42"/><circle cx="675.5673634945398" cy="262.9851444723618" r="4.3" fill="#b98678" opacity="0.42"/><circle cx="377.21119030758337" cy="477.2784909386617" r="4.3" fill="#b98678" opacity="0.42"/><circle cx="446.9786772304513" cy="390.4288494809689" r="4.3" fill="#b98678" opacity="0.42"/><circle cx="615.581771020205" cy="369.96088627720303" r="4.3" fill="#b98678" opacity="0.42"/><circle cx="541.2601412699794" cy="419.0336442702376" r="4.3" fill="#b98678" opacity="0.42"/><circle cx="442.55715758721436" cy="396.2090636411059" r="4.3" fill="#b98678" opacity="0.42"/><circle cx="530.5734292328043" cy="365.7091495698213" r="4.3" fill="#b98678" opacity="0.42"/><circle cx="327.35963323695023" cy="501.9243179362507" r="4.3" fill="#b98678" opacity="0.42"/><circle cx="856.2813806052573" cy="167.07587526624064" r="4.3" fill="#b98678" opacity="0.42"/><circle cx="689.5722999542752" cy="236.57734097194782" r="4.3" fill="#b98678" opacity="0.42"/><circle cx="592.1830544786778" cy="242.69095948012227" r="5.2" fill="#d8b36c" opacity="0.68"/><circle cx="725.7305656272662" cy="212.05706233421745" r="4.3" fill="#b98678" opacity="0.42"/><circle cx="466.34039926947537" cy="433.5970315024233" r="4.3" fill="#b98678" opacity="0.42"/><circle cx="240.99640420264478" cy="506.86306143908666" r="4.3" fill="#b98678" opacity="0.42"/><circle cx="553.1653962444303" cy="343.51746951219513" r="4.3" fill="#b98678" opacity="0.42"/><circle cx="356.82044314173584" cy="520.5248180174333" r="4.3" fill="#b98678" opacity="0.42"/><circle cx="274.39056066295484" cy="484.72069507509605" r="4.3" fill="#b98678" opacity="0.42"/><circle cx="547.1719561592395" cy="407.8060498953762" r="4.3" fill="#b98678" opacity="0.42"/><circle cx="434.6128073312472" cy="460.2347120098039" r="4.3" fill="#b98678" opacity="0.42"/><circle cx="701.3270145310436" cy="249.40915775401066" r="4.3" fill="#b98678" opacity="0.42"/><circle cx="532.0764758698092" cy="409.9922084130019" r="4.3" fill="#b98678" opacity="0.42"/><circle cx="574.8254851316578" cy="421.33687849276794" r="4.3" fill="#b98678" opacity="0.42"/><circle cx="750.6281322905113" cy="255.82484294998028" r="4.3" fill="#b98678" opacity="0.42"/><circle cx="647.4749027237353" cy="247.4876252276867" r="5.2" fill="#d8b36c" opacity="0.68"/><circle cx="824.4809017941454" cy="174.46055519690123" r="4.3" fill="#b98678" opacity="0.42"/><circle cx="368.3437398094911" cy="476.75086565096956" r="4.3" fill="#b98678" opacity="0.42"/><circle cx="388.73271725032424" cy="424.6096292122773" r="4.3" fill="#b98678" opacity="0.42"/><circle cx="298.9295511811024" cy="503.95283781484" r="4.3" fill="#b98678" opacity="0.42"/><circle cx="585.6127770807193" cy="366.3928149606299" r="4.3" fill="#b98678" opacity="0.42"/><circle cx="388.98058061420346" cy="477.81740933370816" r="4.3" fill="#b98678" opacity="0.42"/><circle cx="721.3467279257428" cy="196.51428797468355" r="5.2" fill="#d8b36c" opacity="0.68"/><circle cx="379.8351435935199" cy="441.7006904069767" r="4.3" fill="#b98678" opacity="0.42"/><circle cx="594.8198009950248" cy="339.2198498603352" r="4.3" fill="#b98678" opacity="0.42"/><circle cx="510.17419861722186" cy="389.1545584358523" r="4.3" fill="#b98678" opacity="0.42"/><circle cx="311.17859735973593" cy="527.8343406593407" r="4.3" fill="#b98678" opacity="0.42"/><circle cx="479.03101615646256" cy="404.54952229299363" r="4.3" fill="#b98678" opacity="0.42"/><circle cx="748.2757217847768" cy="215.5971370143149" r="4.3" fill="#b98678" opacity="0.42"/><circle cx="636.2794811619941" cy="308.3280579399142" r="4.3" fill="#b98678" opacity="0.42"/><circle cx="621.64876401102" cy="351.6972676028481" r="4.3" fill="#b98678" opacity="0.42"/><circle cx="639.3570047624447" cy="361.6518154390345" r="4.3" fill="#b98678" opacity="0.42"/><circle cx="441.47091931574124" cy="445.6921275667446" r="4.3" fill="#b98678" opacity="0.42"/><circle cx="637.2666329099368" cy="369.06325567425137" r="4.3" fill="#b98678" opacity="0.42"/><circle cx="443.81209207459204" cy="511.4003579610538" r="4.3" fill="#b98678" opacity="0.42"/><circle cx="623.9953281329489" cy="312.0918913507742" r="4.3" fill="#b98678" opacity="0.42"/><circle cx="624.2874789152719" cy="362.8557542768274" r="4.3" fill="#b98678" opacity="0.42"/><circle cx="386.5832990538873" cy="436.1459855938159" r="4.3" fill="#b98678" opacity="0.42"/><circle cx="298.59478383458645" cy="464.471753915911" r="4.3" fill="#b98678" opacity="0.42"/><circle cx="660.4085396395287" cy="300.49572767364936" r="4.3" fill="#b98678" opacity="0.42"/><circle cx="455.5565343549805" cy="446.7742319180712" r="4.3" fill="#b98678" opacity="0.42"/><circle cx="756.2350614185708" cy="201.97259865568088" r="4.3" fill="#b98678" opacity="0.42"/><circle cx="625.8309391749449" cy="385.9041287082457" r="4.3" fill="#b98678" opacity="0.42"/><circle cx="556.4178911444727" cy="369.63706757302464" r="4.3" fill="#b98678" opacity="0.42"/><circle cx="649.510805561235" cy="272.98591337907374" r="4.3" fill="#b98678" opacity="0.42"/><circle cx="496.58284367065653" cy="401.92828832752616" r="4.3" fill="#b98678" opacity="0.42"/><circle cx="675.1444922225922" cy="309.150212642896" r="4.3" fill="#b98678" opacity="0.42"/><circle cx="475.75961945031713" cy="411.9253412969283" r="4.3" fill="#b98678" opacity="0.42"/><circle cx="623.7212963767487" cy="338.1851482780612" r="4.3" fill="#b98678" opacity="0.42"/><circle cx="460.7499213836478" cy="437.0067786069652" r="4.3" fill="#b98678" opacity="0.42"/><circle cx="436.3240364025696" cy="395.90110759493666" r="4.3" fill="#b98678" opacity="0.42"/><circle cx="470.73795688467465" cy="450.388895962168" r="4.3" fill="#b98678" opacity="0.42"/><circle cx="543.896623042767" cy="407.1443283166109" r="4.3" fill="#b98678" opacity="0.42"/><circle cx="659.2882249630833" cy="382.83110208362604" r="4.3" fill="#b98678" opacity="0.42"/><circle cx="511.69056832357745" cy="398.9871871137206" r="4.3" fill="#b98678" opacity="0.42"/><circle cx="666.3864539748954" cy="266.8667774086379" r="4.3" fill="#b98678" opacity="0.42"/><circle cx="652.863224577516" cy="367.46732816164536" r="4.3" fill="#b98678" opacity="0.42"/><circle cx="618.4595266626723" cy="328.112551786639" r="4.3" fill="#b98678" opacity="0.42"/><circle cx="579.6868015414259" cy="312.0637347560976" r="4.3" fill="#b98678" opacity="0.42"/><circle cx="495.58976429454856" cy="415.0446088794926" r="4.3" fill="#b98678" opacity="0.42"/><circle cx="837.64749012317" cy="164.49172974031052" r="4.3" fill="#b98678" opacity="0.42"/><circle cx="781.9248433935813" cy="226.554827922745" r="4.3" fill="#b98678" opacity="0.42"/><circle cx="561.0788169603909" cy="317.5813636363636" r="4.3" fill="#b98678" opacity="0.42"/><circle cx="592.6877965250577" cy="332.1917241094078" r="4.3" fill="#b98678" opacity="0.42"/><circle cx="728.1171537750903" cy="245.29265670553934" r="4.3" fill="#b98678" opacity="0.42"/><circle cx="299.7295929840342" cy="477.94787481626656" r="4.3" fill="#b98678" opacity="0.42"/><circle cx="523.0902082633523" cy="364.74266151685396" r="4.3" fill="#b98678" opacity="0.42"/><circle cx="491.0727695089135" cy="434.27030637940686" r="4.3" fill="#b98678" opacity="0.42"/><circle cx="780.2569932307279" cy="269.9263381888382" r="4.3" fill="#b98678" opacity="0.42"/><circle cx="527.7125250788191" cy="375.6638007614213" r="4.3" fill="#b98678" opacity="0.42"/><circle cx="503.8137514629215" cy="369.292627967359" r="4.3" fill="#b98678" opacity="0.42"/><circle cx="445.30882293762573" cy="409.4841508336565" r="4.3" fill="#b98678" opacity="0.42"/><circle cx="498.8816028609955" cy="400.6351992061159" r="4.3" fill="#b98678" opacity="0.42"/><circle cx="596.0292791741996" cy="375.28741877753305" r="4.3" fill="#b98678" opacity="0.42"/><circle cx="428.792715654952" cy="413.0029157004501" r="4.3" fill="#b98678" opacity="0.42"/><circle cx="552.9190437601296" cy="400.5116417337937" r="4.3" fill="#b98678" opacity="0.42"/><circle cx="805.4748297147722" cy="175.055980861244" r="4.3" fill="#b98678" opacity="0.42"/><circle cx="612.6010772428127" cy="339.83672614575505" r="4.3" fill="#b98678" opacity="0.42"/><circle cx="362.0847254809948" cy="485.8614952628362" r="4.3" fill="#b98678" opacity="0.42"/><circle cx="242.35225563909776" cy="517.4817982456141" r="4.3" fill="#b98678" opacity="0.42"/><circle cx="371.96030519969855" cy="424.01643258426964" r="4.3" fill="#b98678" opacity="0.42"/><circle cx="622.3580813369391" cy="315.54347876604896" r="4.3" fill="#b98678" opacity="0.42"/><circle cx="434.69365733113676" cy="509.74827310717797" r="4.3" fill="#b98678" opacity="0.42"/><circle cx="484.6468129705681" cy="397.504818448995" r="4.3" fill="#b98678" opacity="0.42"/><circle cx="522.078269482698" cy="355.4928153479702" r="4.3" fill="#b98678" opacity="0.42"/><circle cx="445.11591392136023" cy="396.4073529411765" r="4.3" fill="#b98678" opacity="0.42"/><circle cx="656.0259024524663" cy="327.2365881051361" r="4.3" fill="#b98678" opacity="0.42"/><circle cx="452.4809932659933" cy="412.69986149584486" r="4.3" fill="#b98678" opacity="0.42"/><circle cx="467.5833979606907" cy="439.1368224777955" r="4.3" fill="#b98678" opacity="0.42"/><circle cx="710.1246022840734" cy="274.2912224931329" r="4.3" fill="#b98678" opacity="0.42"/><circle cx="866.0713251254477" cy="212.58753821750275" r="4.3" fill="#b98678" opacity="0.42"/><circle cx="945.0783306268818" cy="167.24612676962676" r="4.3" fill="#b98678" opacity="0.42"/><circle cx="803.4953543594738" cy="172.48638263081392" r="4.3" fill="#b98678" opacity="0.42"/><circle cx="490.81780072904013" cy="443.803540407855" r="4.3" fill="#b98678" opacity="0.42"/><circle cx="806.9090550161811" cy="233.58309268426842" r="4.3" fill="#b98678" opacity="0.42"/><circle cx="586.7020822555613" cy="342.94024663677123" r="4.3" fill="#b98678" opacity="0.42"/><circle cx="643.7649923450042" cy="360.49664641271323" r="4.3" fill="#b98678" opacity="0.42"/><circle cx="769.2961163046467" cy="223.78886227255128" r="4.3" fill="#b98678" opacity="0.42"/><circle cx="480.2514737991267" cy="421.1494918988061" r="4.3" fill="#b98678" opacity="0.42"/><circle cx="464.1216127550686" cy="386.3525064203872" r="4.3" fill="#b98678" opacity="0.42"/><circle cx="857.4642507134562" cy="190.6471041559334" r="4.3" fill="#b98678" opacity="0.42"/><circle cx="548.2351563100084" cy="354.2432266009852" r="4.3" fill="#b98678" opacity="0.42"/><circle cx="272.23829677152315" cy="517.1584269662922" r="4.3" fill="#b98678" opacity="0.42"/><circle cx="630.5460734870318" cy="380.9739383561644" r="4.3" fill="#b98678" opacity="0.42"/><circle cx="468.9352846715329" cy="376.9954510309278" r="4.3" fill="#b98678" opacity="0.42"/><circle cx="301.3305599647266" cy="531.8151695227566" r="4.3" fill="#b98678" opacity="0.42"/><circle cx="435.16086956521747" cy="416.5792927631579" r="4.3" fill="#b98678" opacity="0.42"/><circle cx="483.6544540229885" cy="402.2773745173745" r="4.3" fill="#b98678" opacity="0.42"/><circle cx="677.988978951497" cy="271.4921918282549" r="4.3" fill="#b98678" opacity="0.42"/><circle cx="638.9376476145488" cy="344.87142639902675" r="4.3" fill="#b98678" opacity="0.42"/><circle cx="473.5019441308515" cy="444.8174617102744" r="4.3" fill="#b98678" opacity="0.42"/><circle cx="373.0439103415308" cy="460.7654787587123" r="4.3" fill="#b98678" opacity="0.42"/><circle cx="576.4252017495226" cy="344.2177393330943" r="4.3" fill="#b98678" opacity="0.42"/><circle cx="492.9053666921314" cy="430.98665187376724" r="4.3" fill="#b98678" opacity="0.42"/><circle cx="416.52161526956775" cy="447.8154993793564" r="4.3" fill="#b98678" opacity="0.42"/><circle cx="517.6294773304068" cy="368.23462401795734" r="4.3" fill="#b98678" opacity="0.42"/><circle cx="348.92903410719407" cy="481.39138824884793" r="4.3" fill="#b98678" opacity="0.42"/><circle cx="549.616454816286" cy="347.8737671660425" r="4.3" fill="#b98678" opacity="0.42"/><circle cx="604.0755869872702" cy="274.39996069182394" r="5.2" fill="#d8b36c" opacity="0.68"/><circle cx="390.852073702715" cy="430.6745004440497" r="4.3" fill="#b98678" opacity="0.42"/><circle cx="607.8466906923557" cy="413.81438999072395" r="4.3" fill="#b98678" opacity="0.42"/><circle cx="890.6508361970217" cy="133.41572349570203" r="4.3" fill="#b98678" opacity="0.42"/><circle cx="560.5853177257525" cy="356.58342983651227" r="4.3" fill="#b98678" opacity="0.42"/><circle cx="417.5272368628689" cy="423.130634000374" r="4.3" fill="#b98678" opacity="0.42"/><circle cx="271.19859611231095" cy="510.1088283828383" r="4.3" fill="#b98678" opacity="0.42"/><circle cx="540.7141344626787" cy="382.14240553685" r="4.3" fill="#b98678" opacity="0.42"/><circle cx="512.3101090571583" cy="412.07904792746115" r="4.3" fill="#b98678" opacity="0.42"/><circle cx="561.1016563491613" cy="374.05761894123157" r="4.3" fill="#b98678" opacity="0.42"/><circle cx="437.9914801864802" cy="426.127510373444" r="4.3" fill="#b98678" opacity="0.42"/><circle cx="295.2346072467602" cy="511.5160726154869" r="4.3" fill="#b98678" opacity="0.42"/><circle cx="469.2923583984375" cy="461.11136904761906" r="4.3" fill="#b98678" opacity="0.42"/><circle cx="516.9314412378303" cy="383.62706718346254" r="4.3" fill="#b98678" opacity="0.42"/><circle cx="688.6154338842975" cy="215.61829268292684" r="5.2" fill="#d8b36c" opacity="0.68"/><circle cx="630.8955232502166" cy="394.18961015736767" r="4.3" fill="#b98678" opacity="0.42"/><circle cx="467.7825301601951" cy="442.8404818059299" r="4.3" fill="#b98678" opacity="0.42"/><circle cx="417.5347818088159" cy="493.53798813963124" r="4.3" fill="#b98678" opacity="0.42"/><circle cx="391.58629562298984" cy="455.62663566053516" r="4.3" fill="#b98678" opacity="0.42"/><circle cx="427.84806373537714" cy="366.43625218914184" r="5.2" fill="#d8b36c" opacity="0.68"/><circle cx="469.1178697875689" cy="456.01081018518516" r="4.3" fill="#b98678" opacity="0.42"/><circle cx="737.4106882540977" cy="259.2892300613497" r="4.3" fill="#b98678" opacity="0.42"/><circle cx="485.60576078135057" cy="414.21040876926963" r="4.3" fill="#b98678" opacity="0.42"/><circle cx="290.5212137486574" cy="473.85764066496165" r="4.3" fill="#b98678" opacity="0.42"/><circle cx="572.147967373288" cy="323.18856696585715" r="4.3" fill="#b98678" opacity="0.42"/><circle cx="334.0218085106383" cy="459.10098684210527" r="4.3" fill="#b98678" opacity="0.42"/><circle cx="353.82460806270996" cy="428.33707102001904" r="4.3" fill="#b98678" opacity="0.42"/><circle cx="580.2914602048737" cy="382.3011030662326" r="4.3" fill="#b98678" opacity="0.42"/><circle cx="252.81295221843004" cy="473.80499116607774" r="5.2" fill="#d8b36c" opacity="0.68"/><circle cx="353.5970310799371" cy="493.20532322863403" r="4.3" fill="#b98678" opacity="0.42"/><circle cx="602.0569408740361" cy="295.11483050847454" r="4.3" fill="#b98678" opacity="0.42"/><circle cx="456.4513589301122" cy="429.25032387955184" r="4.3" fill="#b98678" opacity="0.42"/><circle cx="808.1630497976713" cy="209.84518978719893" r="4.3" fill="#b98678" opacity="0.42"/><circle cx="553.8969866166567" cy="390.8876018848701" r="4.3" fill="#b98678" opacity="0.42"/><circle cx="572.602148622982" cy="362.0274572059636" r="4.3" fill="#b98678" opacity="0.42"/><circle cx="461.0722341440153" cy="401.75638667992047" r="4.3" fill="#b98678" opacity="0.42"/><circle cx="635.8214215686274" cy="331.618487698987" r="4.3" fill="#b98678" opacity="0.42"/><circle cx="474.18507135016466" cy="352.0020338038633" r="5.2" fill="#d8b36c" opacity="0.68"/><circle cx="545.5394928684627" cy="332.3186962750716" r="4.3" fill="#b98678" opacity="0.42"/><circle cx="467.93701676359905" cy="399.96512118018967" r="4.3" fill="#b98678" opacity="0.42"/><circle cx="437.7566837732161" cy="423.5737475198413" r="4.3" fill="#b98678" opacity="0.42"/><circle cx="426.2188054744317" cy="460.10292258522725" r="4.3" fill="#b98678" opacity="0.42"/><circle cx="500.1235009085403" cy="465.92045454545456" r="4.3" fill="#b98678" opacity="0.42"/><circle cx="568.8060842717035" cy="336.69286496350367" r="4.3" fill="#b98678" opacity="0.42"/><circle cx="609.8999173629602" cy="362.1442769428153" r="4.3" fill="#b98678" opacity="0.42"/><circle cx="573.9461901660696" cy="354.025748502994" r="4.3" fill="#b98678" opacity="0.42"/><circle cx="457.977097382558" cy="452.20288617556383" r="4.3" fill="#b98678" opacity="0.42"/><circle cx="654.0316525178897" cy="319.7835845115681" r="4.3" fill="#b98678" opacity="0.42"/><circle cx="315.13660617341395" cy="479.9343484419264" r="4.3" fill="#b98678" opacity="0.42"/><circle cx="602.2053759743237" cy="399.4046017303102" r="4.3" fill="#b98678" opacity="0.42"/><circle cx="410.71583099906627" cy="506.5738096930074" r="4.3" fill="#b98678" opacity="0.42"/><circle cx="352.01241925401126" cy="449.80896739130435" r="4.3" fill="#b98678" opacity="0.42"/><circle cx="249.80076889755253" cy="502.67481731309726" r="4.3" fill="#b98678" opacity="0.42"/><text x="504" y="632" class="label" text-anchor="middle">Renters' COI score</text><text x="15" y="335.5" class="label" transform="rotate(-90 15 335.5)" text-anchor="middle">HCV COI score</text><text x="0" y="662" class="caption">Each dot is one metropolitan area.</text></svg>
