<svg xmlns="http://www.w3.org/2000/svg" width="980" height="620" viewBox="0 0 980 620"><style>
text{font-family:Lato,Arial,sans-serif}
.title{font-family:Montserrat,Arial,sans-serif;font-size:22px;font-weight:700;fill:#1f2a3d}
.subtitle{font-size:13px;fill:#687386}
.caption{font-size:11px;fill:#687386}
.axis{font-size:12px;fill:#687386}
.label{font-size:13px;fill:#1f2a3d}
.inbar-label{font-size:12px;font-weight:700;fill:#fff}
.inbar-dark{font-size:12px;font-weight:700;fill:#1f2a3d}
.small-label{font-size:12px;fill:#687386}
.value{font-size:13px;font-weight:700;fill:#1f2a3d}
.grid{stroke:#e8ecf2;stroke-width:1}
.baseline{stroke:#4d596b;stroke-width:1.3}
.hcv{fill:#b98678}
.renter{fill:#77a9bf}
.neg{fill:#b98678}
.pos{fill:#d8b36c}
</style><text x="0" y="28" class="title">Metro gaps</text><text x="0" y="50" class="subtitle">HCV households minus all renters, COI points</text><line x1="135" y1="72" x2="135" y2="543" class="grid"/><text x="135" y="569" class="axis" text-anchor="middle">-20</text><line x1="405" y1="72" x2="405" y2="543" class="grid"/><text x="405" y="569" class="axis" text-anchor="middle">-10</text><line x1="675" y1="72" x2="675" y2="543" class="grid"/><text x="675" y="569" class="axis" text-anchor="middle">0</text><line x1="945" y1="72" x2="945" y2="543" class="grid"/><text x="945" y="569" class="axis" text-anchor="middle">+10</text><line x1="675" y1="66" x2="675" y2="546" class="baseline"/><text x="683" y="58" class="small-label">0</text><rect x="34.713419632350046" y="75" width="640.28658036765" height="20" class="neg" opacity="0.94"/><text x="44.713419632350046" y="89" class="inbar-label">Kankakee, IL</text><text x="665" y="90" class="inbar-label" text-anchor="end">-23.7</text><rect x="59.334132362482826" y="108" width="615.6658676375172" height="20" class="neg" opacity="0.94"/><text x="69.33413236248282" y="122" class="inbar-label">Niles, MI</text><text x="665" y="123" class="inbar-label" text-anchor="end">-22.8</text><rect x="83.84049440475495" y="141" width="591.159505595245" height="20" class="neg" opacity="0.94"/><text x="93.84049440475495" y="155" class="inbar-label">Canton-Massillon, OH</text><text x="665" y="156" class="inbar-label" text-anchor="end">-21.9</text><rect x="84.53652017313479" y="174" width="590.4634798268652" height="20" class="neg" opacity="0.94"/><text x="94.53652017313479" y="188" class="inbar-label">St. Louis, MO-IL</text><text x="665" y="189" class="inbar-label" text-anchor="end">-21.9</text><rect x="88.56595617500844" y="207" width="586.4340438249916" height="20" class="neg" opacity="0.94"/><text x="98.56595617500844" y="221" class="inbar-label">Saginaw, MI</text><text x="665" y="222" class="inbar-label" text-anchor="end">-21.7</text><rect x="92.52302230017551" y="240" width="582.4769776998245" height="20" class="neg" opacity="0.94"/><text x="102.52302230017551" y="254" class="inbar-label">Detroit-Warren-Dearborn…</text><text x="665" y="255" class="inbar-label" text-anchor="end">-21.6</text><rect x="93.81158353770819" y="273" width="581.1884164622918" height="20" class="neg" opacity="0.94"/><text x="103.81158353770819" y="287" class="inbar-label">Columbus, OH</text><text x="665" y="288" class="inbar-label" text-anchor="end">-21.5</text><line x1="0" y1="308" x2="945" y2="308" class="grid"/><rect x="675" y="306" width="71.87600282201163" height="20" class="pos" opacity="0.94"/><text x="792.8760028220116" y="320" class="label" text-anchor="start">Traverse City, MI</text><text x="756.8760028220116" y="321" class="value" text-anchor="start">+2.7</text><rect x="675" y="339" width="75.31105674563287" height="20" class="pos" opacity="0.94"/><text x="796.3110567456329" y="353" class="label" text-anchor="start">Morgantown, WV</text><text x="760.3110567456329" y="354" class="value" text-anchor="start">+2.8</text><rect x="675" y="372" width="95.21638516904193" height="20" class="pos" opacity="0.94"/><text x="816.2163851690419" y="386" class="label" text-anchor="start">Farmington, NM</text><text x="780.2163851690419" y="387" class="value" text-anchor="start">+3.5</text><rect x="675" y="405" width="97.7139012016022" height="20" class="pos" opacity="0.94"/><text x="818.7139012016022" y="419" class="label" text-anchor="start">Gettysburg, PA</text><text x="782.7139012016022" y="420" class="value" text-anchor="start">+3.6</text><rect x="675" y="438" width="169.9816809587635" height="20" class="pos" opacity="0.94"/><text x="685" y="452" class="inbar-dark">Grand Island, NE</text><text x="854.9816809587635" y="453" class="value" text-anchor="start">+6.3</text><rect x="675" y="471" width="188.20109077158963" height="20" class="pos" opacity="0.94"/><text x="685" y="485" class="inbar-dark">Manhattan, KS</text><text x="873.2010907715896" y="486" class="value" text-anchor="start">+7.0</text><rect x="675" y="504" width="261.08682414393945" height="20" class="pos" opacity="0.94"/><text x="685" y="518" class="inbar-dark">Flagstaff, AZ</text><text x="946.0868241439395" y="519" class="value" text-anchor="start">+9.7</text><text x="0" y="598" class="caption">Negative values mean lower HCV opportunity exposure than renters in the same metro.</text></svg>
