<svg xmlns="http://www.w3.org/2000/svg" width="1100" height="720" viewBox="0 0 1100 720"><style>text{font-family:Inter,Arial,sans-serif}.title{font-size:24px;font-weight:700;fill:#111827}.sub{font-size:13px;fill:#4b5563}.axis{font-size:11px;fill:#6b7280}.label{font-size:12px;fill:#111827}.value{font-size:12px;font-weight:700;fill:#111827}.grid{stroke:#e5e7eb;stroke-width:1}.hcv{fill:#b91c1c}.renter{fill:#2563eb}.pos{fill:#15803d}.neg{fill:#b91c1c}.muted{fill:#9ca3af}</style><text x="320" y="38" class="title">Metro Areas at the Two Ends of the Opportunity Gap</text><text x="320" y="64" class="sub">Overall opportunity gap = HCV-weighted COI minus renter-weighted COI.</text><line x1="320" y1="75" x2="320" y2="622" class="grid"/><text x="320" y="646" class="axis" text-anchor="middle">-25</text><line x1="412.85714285714283" y1="75" x2="412.85714285714283" y2="622" class="grid"/><text x="412.85714285714283" y="646" class="axis" text-anchor="middle">-20</text><line x1="505.71428571428567" y1="75" x2="505.71428571428567" y2="622" class="grid"/><text x="505.71428571428567" y="646" class="axis" text-anchor="middle">-15</text><line x1="598.5714285714286" y1="75" x2="598.5714285714286" y2="622" class="grid"/><text x="598.5714285714286" y="646" class="axis" text-anchor="middle">-10</text><line x1="691.4285714285713" y1="75" x2="691.4285714285713" y2="622" class="grid"/><text x="691.4285714285713" y="646" class="axis" text-anchor="middle">-5</text><line x1="784.2857142857142" y1="75" x2="784.2857142857142" y2="622" class="grid"/><text x="784.2857142857142" y="646" class="axis" text-anchor="middle">0</text><line x1="877.1428571428571" y1="75" x2="877.1428571428571" y2="622" class="grid"/><text x="877.1428571428571" y="646" class="axis" text-anchor="middle">5</text><line x1="970" y1="75" x2="970" y2="622" class="grid"/><text x="970" y="646" class="axis" text-anchor="middle">10</text><line x1="784.2857142857142" y1="70" x2="784.2857142857142" y2="622" stroke="#111827" stroke-width="1"/><text x="304" y="95" class="label" text-anchor="end">Kankakee, IL</text><line x1="343.8769553026746" y1="90" x2="784.2857142857142" y2="90" stroke="#b91c1c" stroke-width="10"/><circle cx="343.8769553026746" cy="90" r="5" class="neg"/><text x="333.8769553026746" y="95" class="value" text-anchor="end">-23.7</text><text x="304" y="133" class="label" text-anchor="end">Niles, MI</text><line x1="360.81183707472366" y1="128" x2="784.2857142857142" y2="128" stroke="#b91c1c" stroke-width="10"/><circle cx="360.81183707472366" cy="128" r="5" class="neg"/><text x="350.81183707472366" y="133" class="value" text-anchor="end">-22.8</text><text x="304" y="171" class="label" text-anchor="end">Canton-Massillon, OH</text><line x1="377.6680649344875" y1="166" x2="784.2857142857142" y2="166" stroke="#b91c1c" stroke-width="10"/><circle cx="377.6680649344875" cy="166" r="5" class="neg"/><text x="367.6680649344875" y="171" class="value" text-anchor="end">-21.9</text><text x="304" y="209" class="label" text-anchor="end">St. Louis, MO-IL</text><line x1="378.1468128175001" y1="204" x2="784.2857142857142" y2="204" stroke="#b91c1c" stroke-width="10"/><circle cx="378.1468128175001" cy="204" r="5" class="neg"/><text x="368.1468128175001" y="209" class="value" text-anchor="end">-21.9</text><text x="304" y="247" class="label" text-anchor="end">Saginaw, MI</text><line x1="380.91838255423863" y1="242" x2="784.2857142857142" y2="242" stroke="#b91c1c" stroke-width="10"/><circle cx="380.91838255423863" cy="242" r="5" class="neg"/><text x="370.91838255423863" y="247" class="value" text-anchor="end">-21.7</text><text x="304" y="285" class="label" text-anchor="end">Detroit-Warren-Dearborn, MI</text><line x1="383.6401740689038" y1="280" x2="784.2857142857142" y2="280" stroke="#b91c1c" stroke-width="10"/><circle cx="383.6401740689038" cy="280" r="5" class="neg"/><text x="373.6401740689038" y="285" class="value" text-anchor="end">-21.6</text><text x="304" y="323" class="label" text-anchor="end">Columbus, OH</text><line x1="384.5264860312278" y1="318" x2="784.2857142857142" y2="318" stroke="#b91c1c" stroke-width="10"/><circle cx="384.5264860312278" cy="318" r="5" class="neg"/><text x="374.5264860312278" y="323" class="value" text-anchor="end">-21.5</text><text x="304" y="361" class="label" text-anchor="end">Traverse City, MI</text><line x1="784.2857142857142" y1="356" x2="833.724234745299" y2="356" stroke="#15803d" stroke-width="10"/><circle cx="833.724234745299" cy="356" r="5" class="pos"/><text x="843.724234745299" y="361" class="value" text-anchor="start">+2.7</text><text x="304" y="399" class="label" text-anchor="end">Morgantown, WV</text><line x1="784.2857142857142" y1="394" x2="836.0869702483188" y2="394" stroke="#15803d" stroke-width="10"/><circle cx="836.0869702483188" cy="394" r="5" class="pos"/><text x="846.0869702483188" y="399" class="value" text-anchor="start">+2.8</text><text x="304" y="437" class="label" text-anchor="end">Farmington, NM</text><line x1="784.2857142857142" y1="432" x2="849.7784659892881" y2="432" stroke="#15803d" stroke-width="10"/><circle cx="849.7784659892881" cy="432" r="5" class="pos"/><text x="859.7784659892881" y="437" class="value" text-anchor="start">+3.5</text><text x="304" y="475" class="label" text-anchor="end">Gettysburg, PA</text><line x1="784.2857142857142" y1="470" x2="851.4963341598323" y2="470" stroke="#15803d" stroke-width="10"/><circle cx="851.4963341598323" cy="470" r="5" class="pos"/><text x="861.4963341598323" y="475" class="value" text-anchor="start">+3.6</text><text x="304" y="513" class="label" text-anchor="end">Grand Island, NE</text><line x1="784.2857142857142" y1="508" x2="901.2043308181971" y2="508" stroke="#15803d" stroke-width="10"/><circle cx="901.2043308181971" cy="508" r="5" class="pos"/><text x="911.2043308181971" y="513" class="value" text-anchor="start">+6.3</text><text x="304" y="551" class="label" text-anchor="end">Manhattan, KS</text><line x1="784.2857142857142" y1="546" x2="913.7362000016225" y2="546" stroke="#15803d" stroke-width="10"/><circle cx="913.7362000016225" cy="546" r="5" class="pos"/><text x="923.7362000016225" y="551" class="value" text-anchor="start">+7.0</text><text x="304" y="589" class="label" text-anchor="end">Flagstaff, AZ</text><line x1="784.2857142857142" y1="584" x2="963.86924412017" y2="584" stroke="#15803d" stroke-width="10"/><circle cx="963.86924412017" cy="584" r="5" class="pos"/><text x="973.86924412017" y="589" class="value" text-anchor="start">+9.7</text></svg>