<svg xmlns="http://www.w3.org/2000/svg" width="1000" height="600" viewBox="0 0 1000 600"><style>text{font-family:Inter,Arial,sans-serif}.title{font-size:24px;font-weight:700;fill:#111827}.sub{font-size:13px;fill:#4b5563}.axis{font-size:11px;fill:#6b7280}.label{font-size:12px;fill:#111827}.value{font-size:12px;font-weight:700;fill:#111827}.grid{stroke:#e5e7eb;stroke-width:1}.hcv{fill:#b91c1c}.renter{fill:#2563eb}.pos{fill:#15803d}.neg{fill:#b91c1c}.muted{fill:#9ca3af}</style><text x="170" y="42" class="title">National COI Exposure: HCV Households vs. Renters</text><text x="170" y="68" class="sub">Scores are weighted metropolitan averages on a 0-100 Child Opportunity Index scale.</text><line x1="170" y1="105" x2="170" y2="465" class="grid"/><text x="170" y="497" class="axis" text-anchor="middle">0</text><line x1="350" y1="105" x2="350" y2="465" class="grid"/><text x="350" y="497" class="axis" text-anchor="middle">25</text><line x1="530" y1="105" x2="530" y2="465" class="grid"/><text x="530" y="497" class="axis" text-anchor="middle">50</text><line x1="710" y1="105" x2="710" y2="465" class="grid"/><text x="710" y="497" class="axis" text-anchor="middle">75</text><line x1="890" y1="105" x2="890" y2="465" class="grid"/><text x="890" y="497" class="axis" text-anchor="middle">100</text><rect x="170" y="88" width="12" height="12" class="hcv"/><text x="188" y="99" class="axis">HCV-weighted</text><rect x="300" y="88" width="12" height="12" class="renter"/><text x="318" y="99" class="axis">Renter-weighted</text><text x="152" y="150" class="label" text-anchor="end">Overall COI</text><rect x="170" y="125" width="261.64512" height="22" class="hcv"/><rect x="170" y="155" width="347.56992" height="22" class="renter"/><text x="438.64512" y="141" class="value">36.3</text><text x="524.56992" y="171" class="value">48.3</text><text x="910" y="159" class="axis">gap -11.9</text><text x="152" y="240" class="label" text-anchor="end">Education</text><rect x="170" y="215" width="273.47184" height="22" class="hcv"/><rect x="170" y="245" width="357.88824" height="22" class="renter"/><text x="450.47184" y="231" class="value">38.0</text><text x="534.88824" y="261" class="value">49.7</text><text x="910" y="249" class="axis">gap -11.7</text><text x="152" y="330" class="label" text-anchor="end">Health &amp; Env.</text><rect x="170" y="305" width="392.2524000000001" height="22" class="hcv"/><rect x="170" y="335" width="393.93863999999996" height="22" class="renter"/><text x="569.2524000000001" y="321" class="value">54.5</text><text x="570.93864" y="351" class="value">54.7</text><text x="910" y="339" class="axis">gap -0.2</text><text x="152" y="420" class="label" text-anchor="end">Social &amp; Econ.</text><rect x="170" y="395" width="243.99936000000002" height="22" class="hcv"/><rect x="170" y="425" width="333.82296" height="22" class="renter"/><text x="420.99936" y="411" class="value">33.9</text><text x="510.82296" y="441" class="value">46.4</text><text x="910" y="429" class="axis">gap -12.5</text></svg>