<svg xmlns="http://www.w3.org/2000/svg" width="1000" height="600" viewBox="0 0 1000 600"><style>text{font-family:Inter,Arial,sans-serif}.title{font-size:24px;font-weight:700;fill:#111827}.sub{font-size:13px;fill:#4b5563}.axis{font-size:11px;fill:#6b7280}.value{font-size:12px;font-weight:700;fill:#111827}.grid{stroke:#e5e7eb;stroke-width:1}.neg{fill:#b91c1c}.pos{fill:#15803d}</style><text x="80" y="42" class="title">Distribution of Overall Opportunity Gaps Across Metro Areas</text><text x="80" y="68" class="sub">Overall gap = HCV-weighted COI minus renter-weighted COI.</text><line x1="80" y1="490" x2="910" y2="490" class="grid"/><text x="68" y="494" class="axis" text-anchor="end">0</text><line x1="80" y1="330.3361344537815" x2="910" y2="330.3361344537815" class="grid"/><text x="68" y="334.3361344537815" class="axis" text-anchor="end">50</text><line x1="80" y1="170.67226890756302" x2="910" y2="170.67226890756302" class="grid"/><text x="68" y="174.67226890756302" class="axis" text-anchor="end">100</text><line x1="80" y1="11.008403361344563" x2="910" y2="11.008403361344563" class="grid"/><text x="68" y="15.008403361344563" class="axis" text-anchor="end">150</text><rect x="87" y="451.6806722689076" width="104.57142857142857" height="38.319327731092415" class="neg" opacity="0.85"/><text x="139.28571428571428" y="443.6806722689076" class="value" text-anchor="middle">12</text><text x="139.28571428571428" y="518" class="axis" text-anchor="middle">-25 to -20</text><rect x="205.57142857142856" y="355.88235294117646" width="104.57142857142857" height="134.11764705882354" class="neg" opacity="0.85"/><text x="257.85714285714283" y="347.88235294117646" class="value" text-anchor="middle">42</text><text x="257.85714285714283" y="518" class="axis" text-anchor="middle">-20 to -15</text><rect x="324.1428571428571" y="183.4453781512605" width="104.57142857142857" height="306.5546218487395" class="neg" opacity="0.85"/><text x="376.4285714285714" y="175.4453781512605" class="value" text-anchor="middle">96</text><text x="376.4285714285714" y="518" class="axis" text-anchor="middle">-15 to -10</text><rect x="442.7142857142857" y="110" width="104.57142857142857" height="380" class="neg" opacity="0.85"/><text x="495" y="102" class="value" text-anchor="middle">119</text><text x="495" y="518" class="axis" text-anchor="middle">-10 to -5</text><rect x="561.2857142857142" y="196.21848739495795" width="104.57142857142857" height="293.78151260504205" class="neg" opacity="0.85"/><text x="613.5714285714286" y="188.21848739495795" class="value" text-anchor="middle">92</text><text x="613.5714285714286" y="518" class="axis" text-anchor="middle">-5 to 0</text><rect x="679.8571428571429" y="416.5546218487395" width="104.57142857142857" height="73.44537815126051" class="pos" opacity="0.85"/><text x="732.1428571428572" y="408.5546218487395" class="value" text-anchor="middle">23</text><text x="732.1428571428572" y="518" class="axis" text-anchor="middle">0 to 5</text><rect x="798.4285714285714" y="480.4201680672269" width="104.57142857142857" height="9.579831932773118" class="pos" opacity="0.85"/><text x="850.7142857142858" y="472.4201680672269" class="value" text-anchor="middle">3</text><text x="850.7142857142858" y="518" class="axis" text-anchor="middle">5 to 10</text><line x1="672.8571428571429" y1="102" x2="672.8571428571429" y2="490" stroke="#111827" stroke-width="1"/><text x="80" y="572" class="sub">361 of 393 metro areas have negative overall gaps.</text></svg>